<?xml version="1.0" encoding="utf-8"?>
<!-- Generator: Adobe Illustrator 23.0.3, SVG Export Plug-In . SVG Version: 6.00 Build 0)  -->
<svg version="1.1" id="Layer_1" xmlns="http://www.w3.org/2000/svg" xmlns:xlink="http://www.w3.org/1999/xlink" x="0px" y="0px"
	 viewBox="0 0 128 128" style="enable-background:new 0 0 128 128;" xml:space="preserve">
<style type="text/css">
	.st0{fill:#FF6900;}
	.st1{fill:#FFFFFF;}
</style>
<title>Dodo Sign — Square ContainerAsset 1</title>
<rect class="st0" width="128" height="128"/>
<path d="M0,67.2"/>
<g>
	<path d="M96.3,54.2c4.4,0.8,4.6,3,5.4,4.4c0.9,1.4,2.3,2.1,4.1,2.1c3.3,0,5.3-1.7,5.3-7.7c0-13.3-8.4-19.8-17.2-19.8
		c-7.2,0-10,1.6-16.9,1.6c-4.9,0-8.9-9.9-14.4-11.2c-2.4-5.4-7.9-6.1-11.3-3.3c-3.1-1.9-7.9-0.9-8.1,2.6c-3.5-1.1-8.1,0.8-6.1,5.4
		c-8.6,0.2-10.2,7.9-4.4,8.7c-7.5,4.3-4.1,11.6,2.2,10.1c0.4,5.2,2.6,13.7,2.6,19.5c0,8.1-3.7,10-8.7,10c-5,0-17.3-2.7-28.8-8.6v6.5
		c9.9,4.4,22.3,7.4,29.5,7.4c7.9,0,12.3-4.7,12.3-13.5c0-10.9-3.5-20.8-2.3-27L39.2,41c-4,4.1-6.5,3-6.8,1.7
		c-0.6-2.7,4.1-5.9,6.7-7.1c0.1-0.2,0.1-0.4,0.2-0.5c-2.5,0.4-5.4,0.1-5.5-1.7c-0.1-2.1,4.1-4,9.6-3.5c0.1-0.1,0.2-0.2,0.3-0.3
		c-0.3-0.1-0.7-0.3-1.2-0.6c-1.4-0.7-1.8-2-1.3-2.8c0.5-1,2.1-1.4,3.3-1.3c2,0,3.7,0.5,4.9,1c0.1-0.1,0.3-0.1,0.4-0.2
		c-0.5-0.4-0.9-0.7-1.1-1.1c-0.3-0.6-0.4-1.4,0.2-1.9c0.8-0.6,2.7-0.8,4.5,0.8c0.4,0.3,0.7,0.7,1,1c0.2,0,0.4-0.1,0.6-0.1
		c-0.3-0.5-0.5-0.9-0.6-1.4c-0.1-0.6,0.1-1.2,0.8-1.5c0.8-0.2,1.7,0.1,2.2,0.9c0.5,0.8,0.9,1.8,1.1,2.5c-3.9,0.5-14.3,2.8-14.3,15.3
		c0,12.2,10.1,25,10.1,43.9c0,6.9-1.5,13.8-7.8,21.8c-4.8,6.2-12.5,12.2-24.4,17.1C10.5,128,7,128,7,128h20.4c1.9-1,3.9-2.1,6.2-3.4
		c9.9-5.4,14.8-10.5,18.2-15.2c6.6,2.9,13,4.2,18.7,4.2c10.7,0,19.9-4.9,24.7-13.8c4.9-2.9,8.2-9,8.4-13.3c3.1-3.9,3.6-8.7,2.7-12
		c-0.2-0.8-0.9-0.8-2-0.1c-9.7,5.8-19.1,8.6-28,8.6c-5.4,0-11-0.9-16.9-2.6C58.8,74,57.5,68.7,57,65.5c-0.7-4.3,0.3-7.4,5-7.4
		c3.4,0,9.8,0.9,14.8,3.2c5,2.3,8,6.8,10.1,6.8c0.8,0,1.7-0.5,1.7-2.3c0-3.6-1.3-9.5-2.9-11.6C90.5,53.9,94.2,53.9,96.3,54.2z
		 M59.3,86.7c5.4,1.5,12.9,2.3,19.2,1.9c10.9-0.8,19.2-4.8,23.8-7.8c-2.8,7-13.2,11.4-23.3,12.6c-0.1,0.5-0.1,1-0.2,1.5
		c7.6-0.4,14.8-2.9,18-5.1c-1.9,6.9-11.1,9.7-19.6,10.1c-0.2,0.5-0.5,1.1-0.7,1.5c4.9,0.1,9.6-0.8,12.4-1.7
		c-2.5,4.8-11.2,8.6-20.1,8.6c-4.3,0-9.8-0.8-14.5-3.1C57.7,99,59,92.6,59.3,86.7z M82.1,48.7c-0.8,0-1-0.5-0.9-0.8
		c1.2-3.6,2.2-6.2,4.2-8.3c2-2.2,4.3-2.8,9.3-2.8c6.9,0,12.6,6.9,12.6,16.6c0,1.4-1.9,1.4-2.6,0.1c-2.3-4.1-5.5-4.7-10.5-5.1
		C90.5,48.2,86.1,48.5,82.1,48.7z"/>
	<path class="st1" d="M59.7,30.1c1.5-0.5,3.5,0.9,4.6,3.2c1.1,2.2,0.8,4.5-0.6,4.9c-1.4,0.5-3.5-0.9-4.6-3.2
		c-0.2-0.3-0.3-0.6-0.4-0.9L59,34c0.5,0.4,1,0.6,1.4,0.3c0.5-0.3,0.5-1.2,0-2c-0.3-0.6-1-1.3-1.6-1.2L58.7,31
		C58.9,30.6,59.2,30.2,59.7,30.1 M69.9,52.6c-6.5-1.4-13.6-3.3-17.4-8.9c-0.1-0.1-0.2-0.2-0.3-0.1c-0.1,0-0.2,0.1-0.2,0.3
		c0,0.3,0,0.6,0.1,1l-0.5,0.2c-1-1.4-1.2-3.1-0.2-4.3c1.4-1.8,4.3-1.6,6-0.5l-0.2,0.5c-0.9-0.2-1.8-0.2-2.5,0.3
		c-0.6,0.4-0.7,0.9-0.3,1.6c3.1,5.8,12.3,7.1,23.2,6.3c1.1-0.1,1.4-0.6,1.5-1.1c0.9-3.8,2.7-7.1,5.2-9.7c-2,0.3-3.8,0.3-5.4,0.4
		C73.2,38.7,70,38,69,37.2l0.2-0.5c0.6,0.2,1.2,0.3,1.3,0.1c0.2-0.2,0-0.4-0.2-0.6c-1.1-1-5.9-5.9-5.8-5.9c-0.5-4.2-6.6-4.3-9-0.2
		l-0.8-0.2c0.2-0.9,0.6-1.6,0.9-2.2c-5,1.1-7.9,5.7-8.4,10c-2.2,18.8,26.3,14.5,34.4,22c0.2,0.1,0.5,0.7,0.8,0.3
		C82.7,59,79.1,54.7,69.9,52.6"/>
	<path class="st1" d="M102.3,80.8c-4.6,3-12.8,7-23.8,7.8c-6.2,0.4-13.7-0.4-19.2-1.9c-0.1,1.8-0.3,3.7-0.6,5.6
		c3.1,0.8,8.5,1.8,16.4,2c-0.3,2.1-2.5,9.3-8,13.9c10,0.4,19.1-3.5,21.7-8.6c-2.8,0.9-7.5,1.8-12.4,1.7c0.3-0.5,0.5-1,0.7-1.5
		c8.4-0.4,17.7-3.2,19.6-10.1c-3.3,2.2-10.5,4.7-18,5.1c0.1-0.5,0.2-1,0.2-1.5C89.1,92.2,99.5,87.8,102.3,80.8z"/>
</g>
<path d="M0,100c7.2-2.4,23.2-4.7,23.2-4.7l0.5-2.3C13.1,92.8,0,93.7,0,93.7"/>
</svg>
