<?xml version="1.0" encoding="utf-8"?>
<!-- Generator: Adobe Illustrator 23.0.3, SVG Export Plug-In . SVG Version: 6.00 Build 0)  -->
<svg version="1.1" id="Layer_1" xmlns="http://www.w3.org/2000/svg" xmlns:xlink="http://www.w3.org/1999/xlink" x="0px" y="0px"
	 viewBox="0 0 112.7 161.5" style="enable-background:new 0 0 112.7 161.5;" xml:space="preserve">
<style type="text/css">
	.st0{fill:#FFFFFF;}
</style>
<g>
	<g>
		<path class="st0" d="M62.4,48.9c2.4-0.1,5-0.3,7.2-0.2c3,0.2,4.8,0.6,6.2,3c0.4,0.8,1.5,0.8,1.5-0.1c0-5.7-3.4-9.9-7.5-9.9
			c-2.9,0-4.3,0.4-5.5,1.7c-1.1,1.2-1.8,2.8-2.5,4.9C61.9,48.6,62,48.9,62.4,48.9z"/>
		<path class="st0" d="M41.5,82.8c3.7-4.8,4.6-8.8,4.6-12.9c0-11.2-6-18.8-6-26c0-7.4,6.1-8.8,8.4-9.1c-0.1-0.4-0.3-1-0.6-1.5
			c-0.3-0.4-0.9-0.7-1.3-0.5c-0.4,0.1-0.5,0.5-0.5,0.9c0,0.3,0.2,0.5,0.4,0.8c-0.1,0-0.2,0-0.4,0.1c-0.2-0.2-0.3-0.4-0.6-0.6
			c-1-1-2.2-0.8-2.7-0.5c-0.4,0.3-0.3,0.8-0.1,1.1c0.1,0.2,0.4,0.5,0.6,0.7c-0.1,0-0.2,0.1-0.2,0.1c-0.7-0.3-1.7-0.6-2.9-0.6
			c-0.8,0-1.7,0.2-2,0.8c-0.3,0.5-0.1,1.2,0.8,1.7c0.3,0.1,0.5,0.2,0.7,0.3c-0.1,0.1-0.1,0.1-0.2,0.2c-3.3-0.3-5.8,0.8-5.7,2.1
			c0.1,1.1,1.8,1.2,3.3,1c0,0.1-0.1,0.2-0.1,0.3c-1.6,0.7-4.3,2.6-4,4.2c0.2,0.8,1.7,1.4,4-1l0.2,0.2c-0.7,3.7,1.4,9.5,1.4,16
			c0,5.2-2.6,8-7.3,8c-2.7,0-6.2-0.8-8.6-1.3v8c1.9-0.1,4.1-0.1,5.2,0l-0.3,1.3c0,0-2.4,0.5-4.9,0.9v8.1c0,3.6,1.8,6.2,4.4,7.5
			C34.1,90,38.7,86.5,41.5,82.8z"/>
		<path class="st0" d="M54,23.9H31.1c-4.6,0-8.4,3.4-8.4,8.7v31.3c2.3,0.7,5.8,1.5,8.2,1.5c3,0,5.2-1.1,5.2-5.9
			c0-3.5-1.3-8.5-1.5-11.6c-3.7,0.9-5.8-3.4-1.3-6c-3.5-0.5-2.5-5,2.6-5.2c-1.2-2.7,1.5-3.9,3.6-3.2c0.1-2,3-2.6,4.8-1.5
			c2-1.6,5.3-1.3,6.7,2c3.3,0.8,5.7,6.6,8.6,6.6c4.1,0,5.7-0.9,10-0.9c5.2,0,10.2,3.8,10.2,11.7c0,3.6-1.2,4.6-3.1,4.6
			c-1,0-1.9-0.4-2.4-1.2c-0.5-0.8-0.6-2.1-3.2-2.6c-1.2-0.1-3.5-0.2-6.2,0c1,1.2,1.7,4.7,1.7,6.9c0,1.1-0.5,1.4-1,1.4
			c-1.2,0-3-2.7-6-4c-3-1.4-6.8-1.9-8.8-1.9c-2.8,0-3.4,1.9-2.9,4.4c0.3,1.9,1.1,5.1,1.3,8.8c3.5,1,6.8,1.5,10,1.5
			c5.3,0,10.9-1.6,16.6-5.1c0.7-0.4,1-0.4,1.2,0.1c0.6,1.9,0.2,4.8-1.6,7.1c-0.1,2.6-2.1,6.2-5,7.9c-2.8,5.2-8.3,8.2-14.6,8.2
			c-3.4,0-7.2-0.7-11.1-2.5c-2,2.8-4.9,5.7-10.7,9H54c20.4,0,36-14.2,36-35.2C90,37.9,74.4,23.9,54,23.9z"/>
		<path class="st0" d="M66.5,79.1c-1.7,0.5-4.4,1.1-7.3,1c0.2-0.3,0.3-0.6,0.4-0.9c5-0.2,10.5-1.9,11.6-6c-1.9,1.3-6.2,2.8-10.7,3
			c0.1-0.3,0.1-0.6,0.1-0.9c6-0.7,12.2-3.3,13.8-7.5c-2.7,1.8-7.6,4.2-14.1,4.6c-3.7,0.3-8.1-0.2-11.4-1.1c-0.2,3.5-0.9,7.3-3,10.9
			c2.8,1.3,6,1.8,8.6,1.8C59.8,84.2,65,82,66.5,79.1z"/>
		<path class="st0" d="M62.6,55.6c0.2-0.6-1.9-3.2-7.4-4.4c-3.8-0.8-8.1-2-10.3-5.3c0-0.1-0.1-0.1-0.2-0.1c-0.1,0-0.1,0.1-0.1,0.2
			c0,0.2,0,0.4,0.1,0.6l-0.3,0.1c-0.6-0.8-0.7-1.8-0.1-2.6c0.8-1,2.6-0.9,3.6-0.3l-0.1,0.3c-0.5-0.1-1.1-0.1-1.5,0.2
			c-0.3,0.2-0.4,0.5-0.2,0.9c1.9,3.5,7.3,4.2,13.7,3.7c0.7-0.1,0.8-0.4,0.9-0.7c0.6-2.2,1.6-4.2,3.1-5.7c-1.2,0.2-2.3,0.2-3.2,0.3
			c-3.3,0.2-5.2-0.2-5.8-0.7l0.1-0.3c0.4,0.1,0.7,0.1,0.8,0c0.1-0.1,0-0.2-0.1-0.4C54.8,40.9,52,38,52,38c-0.3-2.5-3.9-2.5-5.3-0.1
			l-0.5-0.1c0.1-0.5,0.4-1,0.6-1.3c-3,0.7-4.7,3.4-5,6c-1.3,11.1,15.6,8.6,20.4,13C62.2,55.5,62.5,55.8,62.6,55.6z M49.2,37.8
			c0.9-0.3,2.1,0.6,2.8,1.9c0.7,1.3,0.5,2.6-0.4,2.9c-0.9,0.3-2.1-0.5-2.7-1.9c-0.1-0.2-0.2-0.4-0.2-0.5l0.2,0
			c0.3,0.3,0.6,0.3,0.8,0.2c0.3-0.2,0.3-0.7,0-1.2c-0.2-0.4-0.6-0.8-1-0.7l-0.1-0.1C48.7,38.1,48.9,37.9,49.2,37.8z"/>
	</g>
	<g id="RU_Dodo_Pizza_Tall_Version_CMYK_3_">
		<g>
			<g id="RU_Tall_Logo_CMYK_3_">
				<g>
					<path class="st0" d="M35.2,117.5h-0.7V110c0-0.7-0.5-1.4-1.4-1.4h-6.4c-0.7,0-1.3,0.5-1.3,1.4v1.8c0,1.3,0,2.3-0.2,3.4
						c-0.2,1.1-0.5,1.7-0.9,2.3H24c-0.9,0-1.3,0.6-1.3,1.4v2.6c0,0.9,0.6,1.4,1.4,1.4c0.8,0,1.4-0.5,1.4-1.4v-1.2h8.4v1.2
						c0,0.9,0.6,1.4,1.4,1.4c0.8,0,1.4-0.5,1.4-1.4v-2.6C36.6,118,36.2,117.5,35.2,117.5z M31.7,117.5h-4.5c0.3-0.6,0.5-1.1,0.7-2
						c0.2-0.9,0.3-1.7,0.3-2.8l0-1.3h3.5V117.5z"/>
					<path class="st0" d="M43.2,108.5c-3.3,0-5.9,2.5-5.9,5.9c0,3.4,2.6,5.9,5.9,5.9c3.3,0,5.9-2.6,5.9-5.9
						C49.1,111,46.5,108.5,43.2,108.5z M43.2,117.7c-1.8,0-3.2-1.4-3.2-3.3c0-1.8,1.3-3.2,3.2-3.2c1.8,0,3.2,1.4,3.2,3.2
						C46.3,116.3,45.1,117.7,43.2,117.7z"/>
					<path class="st0" d="M61.9,117.5h-0.7V110c0-0.7-0.5-1.4-1.4-1.4h-6.4c-0.7,0-1.3,0.5-1.3,1.4v1.8c0,1.3,0,2.3-0.2,3.4
						c-0.2,1.1-0.5,1.7-0.9,2.3h-0.3c-0.9,0-1.3,0.6-1.3,1.4v2.6c0,0.9,0.6,1.4,1.4,1.4c0.8,0,1.4-0.5,1.4-1.4v-1.2h8.4v1.2
						c0,0.9,0.6,1.4,1.4,1.4c0.8,0,1.4-0.5,1.4-1.4v-2.6C63.3,118,62.9,117.5,61.9,117.5z M58.4,117.5h-4.5c0.3-0.6,0.5-1.1,0.7-2
						c0.2-0.9,0.3-1.7,0.3-2.8l0-1.3h3.5V117.5z"/>
					<path class="st0" d="M69.8,108.5c-3.3,0-5.9,2.5-5.9,5.9c0,3.4,2.6,5.9,5.9,5.9c3.3,0,5.9-2.6,5.9-5.9
						C75.7,111,73.1,108.5,69.8,108.5z M69.8,117.7c-1.8,0-3.2-1.4-3.2-3.3c0-1.8,1.3-3.2,3.2-3.2c1.8,0,3.2,1.4,3.2,3.2
						C72.9,116.3,71.7,117.7,69.8,117.7z"/>
				</g>
				<g>
					<path class="st0" d="M31.9,128.9h-7.8c-0.9,0-1.4,0.6-1.4,1.4v8.9c0,0.9,0.6,1.4,1.4,1.4c0.8,0,1.4-0.5,1.4-1.4v-7.6h5v7.6
						c0,0.9,0.6,1.4,1.4,1.4c0.8,0,1.4-0.5,1.4-1.4v-8.9C33.3,129.5,32.8,128.9,31.9,128.9z"/>
					<path class="st0" d="M45.5,128.9h-0.1c-0.8,0-1.4,0.4-1.9,1.2l-4.6,6.5v-6.3c0-0.9-0.6-1.4-1.3-1.4c-0.8,0-1.4,0.5-1.4,1.4v8.6
						c0,0.9,0.6,1.6,1.5,1.6h0.1c0.9,0,1.4-0.4,2-1.2l4.6-6.5v6.3c0,0.9,0.6,1.4,1.3,1.4c0.8,0,1.3-0.5,1.3-1.4v-8.6
						C47.1,129.5,46.6,128.9,45.5,128.9z"/>
					<path class="st0" d="M61.1,137.8h-0.7v-7.6c0-0.9-0.6-1.4-1.4-1.4c-0.8,0-1.4,0.5-1.4,1.4v7.6h-4.9v-7.6c0-0.9-0.6-1.4-1.4-1.4
						c-0.8,0-1.4,0.5-1.4,1.4v8.9c0,0.7,0.5,1.4,1.4,1.4h8.4v1.2c0,0.9,0.6,1.4,1.4,1.4c0.8,0,1.4-0.5,1.4-1.4v-2.6
						C62.5,138.2,61.9,137.8,61.1,137.8z"/>
					<path class="st0" d="M75.1,137.8h-0.7v-7.6c0-0.9-0.6-1.4-1.4-1.4c-0.8,0-1.4,0.5-1.4,1.4v7.6h-4.9v-7.6c0-0.9-0.6-1.4-1.4-1.4
						c-0.8,0-1.4,0.5-1.4,1.4v8.9c0,0.7,0.5,1.4,1.4,1.4h8.4v1.2c0,0.9,0.6,1.4,1.4,1.4c0.8,0,1.4-0.5,1.4-1.4v-2.6
						C76.5,138.2,75.9,137.8,75.1,137.8z"/>
					<path class="st0" d="M88.8,138.5l-3.8-8.3c-0.4-0.9-1-1.3-1.9-1.3h-0.1c-0.9,0-1.5,0.4-1.9,1.3l-3.8,8.3
						c-0.4,0.8-0.1,1.5,0.6,1.8c0.7,0.3,1.3,0.1,1.7-0.7l0.9-1.8c0.8,0.3,1.7,0.4,2.6,0.4c1,0,1.8-0.1,2.5-0.4l0.8,1.8
						c0.4,0.8,1.1,0.9,1.7,0.7C88.8,140.1,89.1,139.3,88.8,138.5z M83,135.8c-0.6,0-1.2-0.1-1.7-0.2l1.6-3.6l1.6,3.6
						C84.2,135.7,83.6,135.8,83,135.8z"/>
				</g>
			</g>
		</g>
	</g>
</g>
</svg>
