<?xml version="1.0" encoding="utf-8"?>
<!-- Generator: Adobe Illustrator 23.0.3, SVG Export Plug-In . SVG Version: 6.00 Build 0)  -->
<svg version="1.1" id="Layer_1" xmlns="http://www.w3.org/2000/svg" xmlns:xlink="http://www.w3.org/1999/xlink" x="0px" y="0px"
	 viewBox="0 0 512.2 115.1" style="enable-background:new 0 0 512.2 115.1;" xml:space="preserve">
<style type="text/css">
	.st0{fill:#FFFFFF;}
</style>
<g>
	<g>
		<path class="st0" d="M62.3,47.4c2.4-0.1,5-0.3,7.2-0.2c3,0.2,4.8,0.6,6.2,3c0.4,0.8,1.5,0.8,1.5-0.1c0-5.7-3.4-9.9-7.5-9.9
			c-2.9,0-4.3,0.4-5.5,1.7c-1.1,1.2-1.8,2.8-2.5,4.9C61.7,47.1,61.8,47.4,62.3,47.4z"/>
		<path class="st0" d="M41.4,81.4c3.7-4.8,4.6-8.8,4.6-12.9c0-11.2-6-18.8-6-26c0-7.4,6.1-8.8,8.4-9.1c-0.1-0.4-0.3-1-0.6-1.5
			c-0.3-0.4-0.9-0.7-1.3-0.5c-0.4,0.1-0.5,0.5-0.5,0.9c0,0.3,0.2,0.5,0.4,0.8c-0.1,0-0.2,0-0.4,0.1c-0.2-0.2-0.3-0.4-0.6-0.6
			c-1-1-2.2-0.8-2.7-0.5c-0.4,0.3-0.3,0.8-0.1,1.1c0.1,0.2,0.4,0.5,0.6,0.7c-0.1,0-0.2,0.1-0.2,0.1c-0.7-0.3-1.7-0.6-2.9-0.6
			c-0.8,0-1.7,0.2-2,0.8c-0.3,0.5-0.1,1.2,0.8,1.7c0.3,0.1,0.5,0.2,0.7,0.3c-0.1,0.1-0.1,0.1-0.2,0.2c-3.3-0.3-5.8,0.8-5.7,2.1
			c0.1,1.1,1.8,1.2,3.3,1c0,0.1-0.1,0.2-0.1,0.3c-1.6,0.7-4.3,2.6-4,4.2c0.2,0.8,1.7,1.4,4-1l0.2,0.2c-0.7,3.7,1.4,9.5,1.4,16
			c0,5.2-2.6,8-7.3,8c-2.7,0-6.2-0.8-8.6-1.3v8c1.9-0.1,4.1-0.1,5.2,0L27.4,75c0,0-2.4,0.5-4.9,0.9V84c0,3.6,1.8,6.2,4.4,7.5
			C34,88.6,38.5,85.1,41.4,81.4z"/>
		<path class="st0" d="M53.9,22.4H31c-4.6,0-8.4,3.4-8.4,8.7v31.3c2.3,0.7,5.8,1.5,8.2,1.5c3,0,5.2-1.1,5.2-5.9
			c0-3.5-1.3-8.5-1.5-11.6c-3.7,0.9-5.8-3.4-1.3-6c-3.5-0.5-2.5-5,2.6-5.2c-1.2-2.7,1.5-3.9,3.6-3.2c0.1-2,3-2.6,4.8-1.5
			c2-1.6,5.3-1.3,6.7,2c3.3,0.8,5.7,6.6,8.6,6.6c4.1,0,5.7-0.9,10-0.9c5.2,0,10.2,3.8,10.2,11.7c0,3.6-1.2,4.6-3.1,4.6
			c-1,0-1.9-0.4-2.4-1.2c-0.5-0.8-0.6-2.1-3.2-2.6c-1.2-0.1-3.5-0.2-6.2,0c1,1.2,1.7,4.7,1.7,6.9c0,1.1-0.5,1.4-1,1.4
			c-1.2,0-3-2.7-6-4c-3-1.4-6.8-1.9-8.8-1.9c-2.8,0-3.4,1.9-2.9,4.4c0.3,1.9,1.1,5.1,1.3,8.8c3.5,1,6.8,1.5,10,1.5
			c5.3,0,10.9-1.6,16.6-5.1c0.7-0.4,1-0.4,1.2,0.1c0.6,1.9,0.2,4.8-1.6,7.1c-0.1,2.6-2.1,6.2-5,7.9c-2.8,5.2-8.3,8.2-14.6,8.2
			c-3.4,0-7.2-0.7-11.1-2.5c-2,2.8-4.9,5.7-10.7,9h20.3c20.4,0,36-14.2,36-35.2C89.9,36.4,74.2,22.4,53.9,22.4z"/>
		<path class="st0" d="M66.3,77.7c-1.7,0.5-4.4,1.1-7.3,1c0.2-0.3,0.3-0.6,0.4-0.9c5-0.2,10.5-1.9,11.6-6c-1.9,1.3-6.2,2.8-10.7,3
			c0.1-0.3,0.1-0.6,0.1-0.9c6-0.7,12.2-3.3,13.8-7.5c-2.7,1.8-7.6,4.2-14.1,4.6c-3.7,0.3-8.1-0.2-11.4-1.1c-0.2,3.5-0.9,7.3-3,10.9
			c2.8,1.3,6,1.8,8.6,1.8C59.7,82.8,64.8,80.5,66.3,77.7z"/>
		<path class="st0" d="M62.5,54.2c0.2-0.6-1.9-3.2-7.4-4.4c-3.8-0.8-8.1-2-10.3-5.3c0-0.1-0.1-0.1-0.2-0.1c-0.1,0-0.1,0.1-0.1,0.2
			c0,0.2,0,0.4,0.1,0.6l-0.3,0.1c-0.6-0.8-0.7-1.8-0.1-2.6c0.8-1,2.6-0.9,3.6-0.3l-0.1,0.3c-0.5-0.1-1.1-0.1-1.5,0.2
			c-0.3,0.2-0.4,0.5-0.2,0.9c1.9,3.5,7.3,4.2,13.7,3.7c0.7-0.1,0.8-0.4,0.9-0.7c0.6-2.2,1.6-4.2,3.1-5.7c-1.2,0.2-2.3,0.2-3.2,0.3
			c-3.3,0.2-5.2-0.2-5.8-0.7l0.1-0.3c0.4,0.1,0.7,0.1,0.8,0c0.1-0.1,0-0.2-0.1-0.4c-0.6-0.6-3.5-3.5-3.5-3.5
			c-0.3-2.5-3.9-2.5-5.3-0.1L46,36.3c0.1-0.5,0.4-1,0.6-1.3c-3,0.7-4.7,3.4-5,6C40.3,52.1,57.2,49.5,62,54
			C62.1,54.1,62.3,54.4,62.5,54.2z M49,36.4c0.9-0.3,2.1,0.6,2.8,1.9c0.7,1.3,0.5,2.6-0.4,2.9c-0.9,0.3-2.1-0.5-2.7-1.9
			c-0.1-0.2-0.2-0.4-0.2-0.5l0.2,0c0.3,0.3,0.6,0.3,0.8,0.2c0.3-0.2,0.3-0.7,0-1.2c-0.2-0.4-0.6-0.8-1-0.7L48.4,37
			C48.6,36.7,48.8,36.5,49,36.4z"/>
	</g>
	<g>
		<g>
			<g>
				<g>
					<g>
						<path class="st0" d="M489.2,69.1l-11.4-25c-1.3-2.7-3.1-3.9-5.7-3.9h-0.4c-2.7,0-4.5,1.2-5.8,3.9l-11.4,25
							c-1.1,2.5-0.3,4.7,2,5.6c2.1,0.8,4,0.3,5.2-2.1l2.6-5.5c2.3,0.8,5.2,1.2,7.8,1.2c2.8,0,5.5-0.4,7.5-1.2l2.5,5.5
							c1.1,2.4,3.3,2.8,5.2,2.1C489.4,73.7,490.3,71.5,489.2,69.1z M471.9,60.8c-1.7,0-3.6-0.2-5-0.7l4.9-10.9l4.9,10.9
							C475.2,60.5,473.6,60.8,471.9,60.8z"/>
						<path class="st0" d="M448,66.8h-2.2V43.9c0-2.6-2-4.1-4.3-4.1c-2.3,0-4.1,1.5-4.1,4.1v22.9h-14.6V43.9c0-2.6-1.9-4.1-4.3-4.1
							s-4.3,1.5-4.3,4.1v26.9c0,2.3,1.5,4.1,4.1,4.1h25.4v3.7c0,2.6,1.9,4.1,4.1,4.1c2.4,0,4.1-1.5,4.1-4.1v-7.7
							C452.1,68.2,450.5,66.8,448,66.8"/>
						<path class="st0" d="M405.7,66.8h-2.2V43.9c0-2.6-2-4.1-4.3-4.1c-2.3,0-4.1,1.5-4.1,4.1v22.9h-14.6V43.9
							c0-2.6-1.9-4.1-4.3-4.1s-4.3,1.5-4.3,4.1v26.9c0,2.3,1.5,4.1,4.1,4.1h25.4v3.7c0,2.6,1.9,4.1,4.1,4.1c2.4,0,4.1-1.5,4.1-4.1
							v-7.7C409.8,68.2,408.2,66.8,405.7,66.8"/>
						<path class="st0" d="M358.7,40.1h-0.3c-2.5,0-4.1,1.2-5.9,3.7l-13.7,19.5V43.9c0-2.6-1.7-4.1-4-4.1c-2.4,0-4.1,1.5-4.1,4.1
							v26.3c0,2.8,1.9,4.7,4.7,4.7h0.4c2.6,0,4.4-1.3,6-3.7l13.7-19.5v19.5c0,2.6,1.7,4.1,4,4.1c2.3,0,4-1.5,4-4.1V44.7
							C363.5,41.9,361.8,40.1,358.7,40.1"/>
						<path class="st0" d="M317.7,40.1h-23.5c-2.7,0-4.1,1.9-4.1,4.1v26.9c0,2.6,2,4.1,4.3,4.1s4.1-1.5,4.1-4.1V48.2h15v22.9
							c0,2.6,1.9,4.1,4.3,4.1c2.3,0,4.3-1.5,4.3-4.3V44.1C322,41.9,320.4,40.1,317.7,40.1"/>
					</g>
					<g>
						<path class="st0" d="M256.8,39.8c-10.1,0-17.9,7.6-17.9,17.8c0,10.2,7.7,17.8,17.9,17.8c10,0,17.9-7.7,17.9-17.9
							C274.5,47.2,266.8,39.8,256.8,39.8z M256.8,67.3c-5.6,0-9.5-4.1-9.5-9.8c0-5.6,4-9.7,9.5-9.7c5.6,0,9.5,4.1,9.5,9.7
							C266.2,63.2,262.4,67.3,256.8,67.3z"/>
						<path class="st0" d="M233,66.8h-2.2V44.2c0-2.3-1.5-4.1-4.1-4.1h-19.3c-2.3,0-3.8,1.5-3.8,4.1v5.5c0,3.9-0.1,7-0.8,10.2
							c-0.7,3.2-1.5,5.2-2.7,6.9h-1c-2.7,0-4,1.7-4,4.1v7.7c0,2.6,1.9,4.1,4.1,4.1c2.4,0,4.1-1.5,4.1-4.1v-3.7h25.4v3.7
							c0,2.6,1.9,4.1,4.1,4.1c2.4,0,4.1-1.5,4.1-4.1v-7.7C237.1,68.5,235.8,66.8,233,66.8z M222.4,66.8h-13.7
							c0.9-1.9,1.5-3.5,2.1-5.9c0.5-2.6,0.8-5.2,0.9-8.6l0.1-4h10.7V66.8z"/>
						<path class="st0" d="M176.4,39.8c-10.1,0-17.9,7.6-17.9,17.8c0,10.2,7.7,17.8,17.9,17.8c10,0,17.9-7.7,17.9-17.9
							C194.3,47.2,186.6,39.8,176.4,39.8z M176.4,67.3c-5.6,0-9.5-4.1-9.5-9.8c0-5.6,4-9.7,9.5-9.7c5.6,0,9.5,4.1,9.5,9.7
							C185.9,63.2,182.2,67.3,176.4,67.3z"/>
						<path class="st0" d="M152.4,66.8h-2.2V44.2c0-2.3-1.5-4.1-4.1-4.1h-19.3c-2.3,0-3.8,1.5-3.8,4.1v5.5c0,3.9,0,7-0.8,10.2
							c-0.7,3.2-1.5,5.2-2.7,6.9h-0.9c-2.7,0-4,1.7-4,4.1v7.7c0,2.6,1.9,4.1,4.1,4.1c2.4,0,4.1-1.5,4.1-4.1v-3.7h25.4v3.7
							c0,2.6,1.9,4.1,4.1,4.1c2.4,0,4.1-1.5,4.1-4.1v-7.7C156.6,68.5,155.3,66.8,152.4,66.8z M141.9,66.8h-13.7
							c0.9-1.9,1.5-3.5,2.1-5.9c0.5-2.6,0.8-5.2,0.9-8.6l0.1-4h10.7L141.9,66.8z"/>
					</g>
				</g>
			</g>
		</g>
	</g>
</g>
</svg>
