<?xml version="1.0" encoding="utf-8"?>
<!-- Generator: Adobe Illustrator 23.0.3, SVG Export Plug-In . SVG Version: 6.00 Build 0)  -->
<svg version="1.1" id="Layer_1" xmlns="http://www.w3.org/2000/svg" xmlns:xlink="http://www.w3.org/1999/xlink" x="0px" y="0px"
	 viewBox="0 0 112.7 161.5" style="enable-background:new 0 0 112.7 161.5;" xml:space="preserve">
<g>
	<g>
		<g>
			<g>
				<g>
					<path d="M49.2,37.8c-0.3,0.1-0.5,0.3-0.6,0.6l0.1,0.1c0.3,0,0.8,0.4,1,0.7c0.3,0.5,0.3,1,0,1.2c-0.2,0.1-0.5,0.1-0.8-0.2
						l-0.2,0c0.1,0.2,0.1,0.4,0.2,0.5c0.7,1.3,1.9,2.2,2.7,1.9c0.9-0.3,1-1.6,0.4-2.9C51.3,38.3,50.1,37.5,49.2,37.8z"/>
					<path d="M54,20.7H30.9c-6.4,0-11.2,4.9-11.2,11.5v53.6c0,6.4,4.7,11.1,11.2,11.1H54c22.7,0,39.3-16.1,39.3-38.3
						C93.3,36.6,76.6,20.7,54,20.7z M27.1,92.9c-2.6-1.3-4.4-3.8-4.4-7.5v-8.1c2.4-0.5,4.9-0.9,4.9-0.9l0.3-1.3
						c-1.1-0.1-3.3,0-5.2,0v-8c2.4,0.6,5.9,1.3,8.6,1.3c4.7,0,7.3-2.8,7.3-8c0-6.4-2.1-12.3-1.4-16l-0.2-0.2c-2.3,2.4-3.9,1.8-4,1
						c-0.3-1.6,2.4-3.5,4-4.2c0-0.1,0.1-0.2,0.1-0.3c-1.5,0.2-3.2,0-3.3-1c-0.1-1.2,2.4-2.4,5.7-2.1c0.1-0.1,0.1-0.1,0.2-0.2
						c-0.2-0.1-0.4-0.2-0.7-0.3c-0.8-0.4-1.1-1.2-0.8-1.7c0.3-0.6,1.2-0.8,2-0.8c1.2,0,2.2,0.3,2.9,0.6c0.1,0,0.2-0.1,0.2-0.1
						c-0.3-0.2-0.5-0.4-0.6-0.7c-0.2-0.3-0.3-0.8,0.1-1.1c0.5-0.4,1.6-0.5,2.7,0.5c0.2,0.2,0.4,0.4,0.6,0.6c0.1,0,0.2,0,0.4-0.1
						c-0.2-0.3-0.3-0.5-0.4-0.8c-0.1-0.4,0.1-0.7,0.5-0.9c0.5-0.1,1,0.1,1.3,0.5c0.3,0.5,0.5,1.1,0.6,1.5c-2.3,0.3-8.4,1.7-8.4,9.1
						c0,7.2,6,14.8,6,26c0,4.1-0.9,8.2-4.6,12.9C38.7,86.4,34.1,90,27.1,92.9z M60.5,42.7c1-0.1,2-0.1,3.2-0.3
						c-1.5,1.5-2.5,3.5-3.1,5.7c-0.1,0.3-0.2,0.6-0.9,0.7c-6.4,0.5-11.9-0.3-13.7-3.7c-0.2-0.4-0.2-0.7,0.2-0.9
						c0.4-0.2,0.9-0.2,1.5-0.2l0.1-0.3c-1-0.6-2.7-0.8-3.6,0.3c-0.6,0.7-0.5,1.7,0.1,2.6l0.3-0.1c0-0.2-0.1-0.4-0.1-0.6
						c0-0.1,0.1-0.1,0.1-0.2c0.1,0,0.1,0,0.2,0.1c2.2,3.3,6.5,4.4,10.3,5.3c5.5,1.2,7.6,3.8,7.4,4.4c-0.2,0.2-0.4-0.1-0.5-0.2
						c-4.8-4.5-21.7-1.9-20.4-13c0.3-2.6,2-5.3,5-6c-0.2,0.3-0.4,0.7-0.6,1.3l0.5,0.1c1.4-2.4,5-2.3,5.3,0.1c0,0,2.8,2.9,3.5,3.5
						c0.2,0.1,0.2,0.2,0.1,0.4c-0.1,0.1-0.4,0.1-0.8,0L54.7,42C55.3,42.5,57.2,42.9,60.5,42.7z M64.4,43.4c1.2-1.3,2.5-1.7,5.5-1.7
						c4.1,0,7.5,4.1,7.5,9.9c0,0.9-1.1,0.8-1.5,0.1c-1.4-2.4-3.3-2.8-6.2-3c-2.2-0.1-4.8,0.1-7.2,0.2c-0.4,0-0.6-0.3-0.5-0.5
						C62.6,46.2,63.3,44.6,64.4,43.4z M71.2,73.2c-1.1,4.1-6.6,5.7-11.6,6c-0.1,0.3-0.3,0.6-0.4,0.9c2.9,0.1,5.7-0.5,7.3-1
						c-1.5,2.8-6.6,5.1-11.9,5.1c-2.6,0-5.8-0.5-8.6-1.8c2-3.7,2.8-7.5,3-10.9c3.2,0.9,7.7,1.4,11.4,1.1c6.5-0.5,11.4-2.9,14.1-4.6
						c-1.6,4.2-7.8,6.7-13.8,7.5c0,0.3-0.1,0.6-0.1,0.9C65,76,69.2,74.5,71.2,73.2z M54,93.8H33.7c5.8-3.2,8.7-6.2,10.7-9
						c3.9,1.7,7.7,2.5,11.1,2.5c6.4,0,11.8-2.9,14.6-8.2c2.9-1.7,4.8-5.3,5-7.9c1.8-2.3,2.1-5.2,1.6-7.1c-0.1-0.5-0.5-0.5-1.2-0.1
						c-5.7,3.4-11.3,5.1-16.6,5.1c-3.2,0-6.5-0.5-10-1.5c-0.3-3.8-1-6.9-1.3-8.8c-0.4-2.5,0.2-4.4,2.9-4.4c2,0,5.8,0.5,8.8,1.9
						c3,1.4,4.7,4,6,4c0.5,0,1-0.3,1-1.4c0-2.2-0.8-5.6-1.7-6.9c2.8-0.2,5-0.1,6.2,0c2.6,0.5,2.7,1.8,3.2,2.6
						c0.5,0.8,1.4,1.2,2.4,1.2c1.9,0,3.1-1,3.1-4.6c0-7.9-5-11.7-10.2-11.7c-4.3,0-5.9,0.9-10,0.9c-2.9,0-5.3-5.9-8.6-6.6
						c-1.4-3.2-4.7-3.6-6.7-2c-1.8-1.1-4.7-0.5-4.8,1.5c-2.1-0.6-4.8,0.5-3.6,3.2c-5.1,0.1-6.1,4.7-2.6,5.2c-4.5,2.5-2.4,6.9,1.3,6
						c0.3,3.1,1.5,8.1,1.5,11.6c0,4.8-2.2,5.9-5.2,5.9c-2.3,0-5.8-0.9-8.2-1.5V32.5c0-5.3,3.8-8.7,8.4-8.7H54c20.4,0,36,14,36,34.8
						C90,79.5,74.4,93.8,54,93.8z"/>
				</g>
			</g>
		</g>
	</g>
	<g id="RU_Dodo_Pizza_Tall_Version_CMYK_4_">
		<g>
			<g id="RU_Tall_Logo_CMYK_4_">
				<g>
					<path d="M35.2,117.5h-0.7V110c0-0.7-0.5-1.4-1.4-1.4h-6.4c-0.7,0-1.3,0.5-1.3,1.4v1.8c0,1.3,0,2.3-0.2,3.4
						c-0.2,1.1-0.5,1.7-0.9,2.3H24c-0.9,0-1.3,0.6-1.3,1.4v2.6c0,0.9,0.6,1.4,1.4,1.4c0.8,0,1.4-0.5,1.4-1.4v-1.2h8.4v1.2
						c0,0.9,0.6,1.4,1.4,1.4c0.8,0,1.4-0.5,1.4-1.4v-2.6C36.6,118,36.2,117.5,35.2,117.5z M31.7,117.5h-4.5c0.3-0.6,0.5-1.1,0.7-2
						c0.2-0.9,0.3-1.7,0.3-2.8l0-1.3h3.5V117.5z"/>
					<path d="M43.2,108.5c-3.3,0-5.9,2.5-5.9,5.9c0,3.4,2.6,5.9,5.9,5.9c3.3,0,5.9-2.6,5.9-5.9C49.1,111,46.5,108.5,43.2,108.5z
						 M43.2,117.7c-1.8,0-3.2-1.4-3.2-3.3c0-1.8,1.3-3.2,3.2-3.2c1.8,0,3.2,1.4,3.2,3.2C46.3,116.3,45.1,117.7,43.2,117.7z"/>
					<path d="M61.9,117.5h-0.7V110c0-0.7-0.5-1.4-1.4-1.4h-6.4c-0.7,0-1.3,0.5-1.3,1.4v1.8c0,1.3,0,2.3-0.2,3.4
						c-0.2,1.1-0.5,1.7-0.9,2.3h-0.3c-0.9,0-1.3,0.6-1.3,1.4v2.6c0,0.9,0.6,1.4,1.4,1.4c0.8,0,1.4-0.5,1.4-1.4v-1.2h8.4v1.2
						c0,0.9,0.6,1.4,1.4,1.4c0.8,0,1.4-0.5,1.4-1.4v-2.6C63.3,118,62.9,117.5,61.9,117.5z M58.4,117.5h-4.5c0.3-0.6,0.5-1.1,0.7-2
						c0.2-0.9,0.3-1.7,0.3-2.8l0-1.3h3.5V117.5z"/>
					<path d="M69.8,108.5c-3.3,0-5.9,2.5-5.9,5.9c0,3.4,2.6,5.9,5.9,5.9c3.3,0,5.9-2.6,5.9-5.9C75.7,111,73.1,108.5,69.8,108.5z
						 M69.8,117.7c-1.8,0-3.2-1.4-3.2-3.3c0-1.8,1.3-3.2,3.2-3.2c1.8,0,3.2,1.4,3.2,3.2C72.9,116.3,71.7,117.7,69.8,117.7z"/>
				</g>
				<g>
					<path d="M31.9,128.9h-7.8c-0.9,0-1.4,0.6-1.4,1.4v8.9c0,0.9,0.6,1.4,1.4,1.4c0.8,0,1.4-0.5,1.4-1.4v-7.6h5v7.6
						c0,0.9,0.6,1.4,1.4,1.4c0.8,0,1.4-0.5,1.4-1.4v-8.9C33.3,129.5,32.8,128.9,31.9,128.9z"/>
					<path d="M45.5,128.9h-0.1c-0.8,0-1.4,0.4-1.9,1.2l-4.6,6.5v-6.3c0-0.9-0.6-1.4-1.3-1.4c-0.8,0-1.4,0.5-1.4,1.4v8.6
						c0,0.9,0.6,1.6,1.5,1.6h0.1c0.9,0,1.4-0.4,2-1.2l4.6-6.5v6.3c0,0.9,0.6,1.4,1.3,1.4c0.8,0,1.3-0.5,1.3-1.4v-8.6
						C47.1,129.5,46.6,128.9,45.5,128.9z"/>
					<path d="M61.1,137.8h-0.7v-7.6c0-0.9-0.6-1.4-1.4-1.4c-0.8,0-1.4,0.5-1.4,1.4v7.6h-4.9v-7.6c0-0.9-0.6-1.4-1.4-1.4
						c-0.8,0-1.4,0.5-1.4,1.4v8.9c0,0.7,0.5,1.4,1.4,1.4h8.4v1.2c0,0.9,0.6,1.4,1.4,1.4c0.8,0,1.4-0.5,1.4-1.4v-2.6
						C62.5,138.2,61.9,137.8,61.1,137.8z"/>
					<path d="M75.1,137.8h-0.7v-7.6c0-0.9-0.6-1.4-1.4-1.4c-0.8,0-1.4,0.5-1.4,1.4v7.6h-4.9v-7.6c0-0.9-0.6-1.4-1.4-1.4
						c-0.8,0-1.4,0.5-1.4,1.4v8.9c0,0.7,0.5,1.4,1.4,1.4h8.4v1.2c0,0.9,0.6,1.4,1.4,1.4c0.8,0,1.4-0.5,1.4-1.4v-2.6
						C76.5,138.2,75.9,137.8,75.1,137.8z"/>
					<path d="M88.8,138.5l-3.8-8.3c-0.4-0.9-1-1.3-1.9-1.3h-0.1c-0.9,0-1.5,0.4-1.9,1.3l-3.8,8.3c-0.4,0.8-0.1,1.5,0.6,1.8
						c0.7,0.3,1.3,0.1,1.7-0.7l0.9-1.8c0.8,0.3,1.7,0.4,2.6,0.4c1,0,1.8-0.1,2.5-0.4l0.8,1.8c0.4,0.8,1.1,0.9,1.7,0.7
						C88.8,140.1,89.1,139.3,88.8,138.5z M83,135.8c-0.6,0-1.2-0.1-1.7-0.2l1.6-3.6l1.6,3.6C84.2,135.7,83.6,135.8,83,135.8z"/>
				</g>
			</g>
		</g>
	</g>
</g>
</svg>
