<?xml version="1.0" encoding="utf-8"?>
<!-- Generator: Adobe Illustrator 23.0.3, SVG Export Plug-In . SVG Version: 6.00 Build 0)  -->
<svg version="1.1" id="Слой_1" xmlns="http://www.w3.org/2000/svg" xmlns:xlink="http://www.w3.org/1999/xlink" x="0px" y="0px"
	 viewBox="0 0 81.8 85" style="enable-background:new 0 0 81.8 85;" xml:space="preserve">
<g>
	<g>
		<g>
			<path d="M33.7,21.5c-0.3,0.1-0.5,0.3-0.6,0.6l0.1,0.1c0.3,0,0.8,0.4,1,0.7c0.3,0.5,0.3,1,0,1.2c-0.2,0.1-0.5,0.1-0.8-0.2l-0.2,0
				c0.1,0.2,0.1,0.4,0.2,0.5c0.7,1.3,1.9,2.2,2.7,1.9c0.9-0.3,1-1.6,0.4-2.9C35.8,22.1,34.6,21.2,33.7,21.5z"/>
			<path d="M38.5,4.4H15.4C9,4.4,4.2,9.4,4.2,15.9v53.6c0,6.4,4.7,11.1,11.2,11.1h23.1c22.7,0,39.3-16.1,39.3-38.3
				C77.8,20.4,61.2,4.4,38.5,4.4z M11.6,76.6c-2.6-1.3-4.4-3.8-4.4-7.5v-8.1c2.4-0.5,4.9-0.9,4.9-0.9l0.3-1.3c-1.1-0.1-3.3,0-5.2,0
				v-8c2.4,0.6,5.9,1.3,8.6,1.3c4.7,0,7.3-2.8,7.3-8c0-6.4-2.1-12.3-1.4-16L21.6,28c-2.3,2.4-3.9,1.8-4,1c-0.3-1.6,2.4-3.5,4-4.2
				c0-0.1,0.1-0.2,0.1-0.3c-1.5,0.2-3.2,0-3.3-1c-0.1-1.2,2.4-2.4,5.7-2.1c0.1-0.1,0.1-0.1,0.2-0.2c-0.2-0.1-0.4-0.2-0.7-0.3
				c-0.8-0.4-1.1-1.2-0.8-1.7c0.3-0.6,1.2-0.8,2-0.8c1.2,0,2.2,0.3,2.9,0.6c0.1,0,0.2-0.1,0.2-0.1c-0.3-0.2-0.5-0.4-0.6-0.7
				c-0.2-0.3-0.3-0.8,0.1-1.1c0.5-0.4,1.6-0.5,2.7,0.5c0.2,0.2,0.4,0.4,0.6,0.6c0.1,0,0.2,0,0.4-0.1c-0.2-0.3-0.3-0.5-0.4-0.8
				c-0.1-0.4,0.1-0.7,0.5-0.9c0.5-0.1,1,0.1,1.3,0.5c0.3,0.5,0.5,1.1,0.6,1.5c-2.3,0.3-8.4,1.7-8.4,9.1c0,7.2,6,14.8,6,26
				c0,4.1-0.9,8.2-4.6,12.9C23.2,70.1,18.6,73.7,11.6,76.6z M45,26.4c1-0.1,2-0.1,3.2-0.3c-1.5,1.5-2.5,3.5-3.1,5.7
				c-0.1,0.3-0.2,0.6-0.9,0.7c-6.4,0.5-11.9-0.3-13.7-3.7c-0.2-0.4-0.2-0.7,0.2-0.9c0.4-0.2,0.9-0.2,1.5-0.2l0.1-0.3
				c-1-0.6-2.7-0.8-3.6,0.3c-0.6,0.7-0.5,1.7,0.1,2.6l0.3-0.1c0-0.2-0.1-0.4-0.1-0.6c0-0.1,0.1-0.1,0.1-0.2c0.1,0,0.1,0,0.2,0.1
				c2.2,3.3,6.5,4.4,10.3,5.3c5.5,1.2,7.6,3.8,7.4,4.4c-0.2,0.2-0.4-0.1-0.5-0.2c-4.8-4.5-21.7-1.9-20.4-13c0.3-2.6,2-5.3,5-6
				c-0.2,0.3-0.4,0.7-0.6,1.3l0.5,0.1c1.4-2.4,5-2.3,5.3,0.1c0,0,2.8,2.9,3.5,3.5c0.2,0.1,0.2,0.2,0.1,0.4c-0.1,0.1-0.4,0.1-0.8,0
				l-0.1,0.3C39.8,26.2,41.7,26.7,45,26.4z M48.9,27.1c1.2-1.3,2.5-1.7,5.5-1.7c4.1,0,7.5,4.1,7.5,9.9c0,0.9-1.1,0.8-1.5,0.1
				c-1.4-2.4-3.3-2.8-6.2-3c-2.2-0.1-4.8,0.1-7.2,0.2c-0.4,0-0.6-0.3-0.5-0.5C47.2,29.9,47.8,28.3,48.9,27.1z M55.7,56.9
				c-1.1,4.1-6.6,5.7-11.6,6c-0.1,0.3-0.3,0.6-0.4,0.9c2.9,0.1,5.7-0.5,7.3-1c-1.5,2.8-6.6,5.1-11.9,5.1c-2.6,0-5.8-0.5-8.6-1.8
				c2-3.7,2.8-7.5,3-10.9c3.2,0.9,7.7,1.4,11.4,1.1c6.5-0.5,11.4-2.9,14.1-4.6c-1.6,4.2-7.8,6.7-13.8,7.5c0,0.3-0.1,0.6-0.1,0.9
				C49.5,59.7,53.8,58.2,55.7,56.9z M38.5,77.5H18.2c5.8-3.2,8.7-6.2,10.7-9C32.9,70.3,36.6,71,40,71c6.4,0,11.8-2.9,14.6-8.2
				c2.9-1.7,4.8-5.3,5-7.9c1.8-2.3,2.1-5.2,1.6-7.1c-0.1-0.5-0.5-0.5-1.2-0.1c-5.7,3.4-11.3,5.1-16.6,5.1c-3.2,0-6.5-0.5-10-1.5
				c-0.3-3.8-1-6.9-1.3-8.8c-0.4-2.5,0.2-4.4,2.9-4.4c2,0,5.8,0.5,8.8,1.9c3,1.4,4.7,4,6,4c0.5,0,1-0.3,1-1.4c0-2.2-0.8-5.6-1.7-6.9
				c2.8-0.2,5-0.1,6.2,0c2.6,0.5,2.7,1.8,3.2,2.6c0.5,0.8,1.4,1.2,2.4,1.2c1.9,0,3.1-1,3.1-4.6c0-7.9-5-11.7-10.2-11.7
				c-4.3,0-5.9,0.9-10,0.9c-2.9,0-5.3-5.9-8.6-6.6c-1.4-3.2-4.7-3.6-6.7-2c-1.8-1.1-4.7-0.5-4.8,1.5c-2.1-0.6-4.8,0.5-3.6,3.2
				c-5.1,0.1-6.1,4.7-2.6,5.2c-4.5,2.5-2.4,6.9,1.3,6c0.3,3.1,1.5,8.1,1.5,11.6c0,4.8-2.2,5.9-5.2,5.9c-2.3,0-5.8-0.9-8.2-1.5V16.2
				c0-5.3,3.8-8.7,8.4-8.7h22.9c20.4,0,36,14,36,34.8C74.6,63.3,58.9,77.5,38.5,77.5z"/>
		</g>
	</g>
</g>
</svg>
