<?xml version="1.0" encoding="utf-8"?>
<!-- Generator: Adobe Illustrator 23.0.3, SVG Export Plug-In . SVG Version: 6.00 Build 0)  -->
<svg version="1.1" id="Слой_1" xmlns="http://www.w3.org/2000/svg" xmlns:xlink="http://www.w3.org/1999/xlink" x="0px" y="0px"
	 viewBox="0 0 81.8 85" style="enable-background:new 0 0 81.8 85;" xml:space="preserve">
<style type="text/css">
	.st0{fill:#FFFFFF;}
</style>
<g>
	<g>
		<path class="st0" d="M47,32.5c2.4-0.1,5-0.3,7.2-0.2c3,0.2,4.8,0.6,6.2,3c0.4,0.8,1.5,0.8,1.5-0.1c0-5.7-3.4-9.9-7.5-9.9
			c-2.9,0-4.3,0.4-5.5,1.7c-1.1,1.2-1.8,2.8-2.5,4.9C46.4,32.2,46.5,32.5,47,32.5z"/>
		<path class="st0" d="M26.1,66.5c3.7-4.8,4.6-8.8,4.6-12.9c0-11.2-6-18.8-6-26c0-7.4,6.1-8.8,8.4-9.1c-0.1-0.4-0.3-1-0.6-1.5
			c-0.3-0.4-0.9-0.7-1.3-0.5c-0.4,0.1-0.5,0.5-0.5,0.9c0,0.3,0.2,0.5,0.4,0.8c-0.1,0-0.2,0-0.4,0.1c-0.2-0.2-0.3-0.4-0.6-0.6
			c-1-1-2.2-0.8-2.7-0.5c-0.4,0.3-0.3,0.8-0.1,1.1c0.1,0.2,0.4,0.5,0.6,0.7c-0.1,0-0.2,0.1-0.2,0.1c-0.7-0.3-1.7-0.6-2.9-0.6
			c-0.8,0-1.7,0.2-2,0.8c-0.3,0.5-0.1,1.2,0.8,1.7c0.3,0.1,0.5,0.2,0.7,0.3c-0.1,0.1-0.1,0.1-0.2,0.2c-3.3-0.3-5.8,0.8-5.7,2.1
			c0.1,1.1,1.8,1.2,3.3,1c0,0.1-0.1,0.2-0.1,0.3c-1.6,0.7-4.3,2.6-4,4.2c0.2,0.8,1.7,1.4,4-1l0.2,0.2c-0.7,3.7,1.4,9.5,1.4,16
			c0,5.2-2.6,8-7.3,8c-2.7,0-6.2-0.8-8.6-1.3v8c1.9-0.1,4.1-0.1,5.2,0l-0.3,1.3c0,0-2.4,0.5-4.9,0.9v8.1c0,3.6,1.8,6.2,4.4,7.5
			C18.7,73.7,23.2,70.2,26.1,66.5z"/>
		<path class="st0" d="M38.5,7.5H15.7c-4.6,0-8.4,3.4-8.4,8.7v31.3C9.6,48.2,13,49,15.4,49c3,0,5.2-1.1,5.2-5.9
			c0-3.5-1.3-8.5-1.5-11.6c-3.7,0.9-5.8-3.4-1.3-6c-3.5-0.5-2.5-5,2.6-5.2c-1.2-2.7,1.5-3.9,3.6-3.2c0.1-2,3-2.6,4.8-1.5
			c2-1.6,5.3-1.3,6.7,2c3.3,0.8,5.7,6.6,8.6,6.6c4.1,0,5.7-0.9,10-0.9c5.2,0,10.2,3.8,10.2,11.7c0,3.6-1.2,4.6-3.1,4.6
			c-1,0-1.9-0.4-2.4-1.2c-0.5-0.8-0.6-2.1-3.2-2.6c-1.2-0.1-3.5-0.2-6.2,0c1,1.2,1.7,4.7,1.7,6.9c0,1.1-0.5,1.4-1,1.4
			c-1.2,0-3-2.7-6-4c-3-1.4-6.8-1.9-8.8-1.9c-2.8,0-3.4,1.9-2.9,4.4c0.3,1.9,1.1,5.1,1.3,8.8c3.5,1,6.8,1.5,10,1.5
			c5.3,0,10.9-1.6,16.6-5.1c0.7-0.4,1-0.4,1.2,0.1c0.6,1.9,0.2,4.8-1.6,7.1c-0.1,2.6-2.1,6.2-5,7.9C51.8,68.1,46.4,71,40,71
			c-3.4,0-7.2-0.7-11.1-2.5c-2,2.8-4.9,5.7-10.7,9h20.3c20.4,0,36-14.2,36-35.2C74.6,21.5,58.9,7.5,38.5,7.5z"/>
		<path class="st0" d="M51,62.8c-1.7,0.5-4.4,1.1-7.3,1c0.2-0.3,0.3-0.6,0.4-0.9c5-0.2,10.5-1.9,11.6-6c-1.9,1.3-6.2,2.8-10.7,3
			c0.1-0.3,0.1-0.6,0.1-0.9c6-0.7,12.2-3.3,13.8-7.5c-2.7,1.8-7.6,4.2-14.1,4.6c-3.7,0.3-8.1-0.2-11.4-1.1c-0.2,3.5-0.9,7.3-3,10.9
			c2.8,1.3,6,1.8,8.6,1.8C44.4,67.9,49.5,65.6,51,62.8z"/>
		<path class="st0" d="M47.2,39.3c0.2-0.6-1.9-3.2-7.4-4.4c-3.8-0.8-8.1-2-10.3-5.3c0-0.1-0.1-0.1-0.2-0.1c-0.1,0-0.1,0.1-0.1,0.2
			c0,0.2,0,0.4,0.1,0.6l-0.3,0.1c-0.6-0.8-0.7-1.8-0.1-2.6c0.8-1,2.6-0.9,3.6-0.3l-0.1,0.3c-0.5-0.1-1.1-0.1-1.5,0.2
			c-0.3,0.2-0.4,0.5-0.2,0.9c1.9,3.5,7.3,4.2,13.7,3.7c0.7-0.1,0.8-0.4,0.9-0.7c0.6-2.2,1.6-4.2,3.1-5.7c-1.2,0.2-2.3,0.2-3.2,0.3
			c-3.3,0.2-5.2-0.2-5.8-0.7l0.1-0.3c0.4,0.1,0.7,0.1,0.8,0c0.1-0.1,0-0.2-0.1-0.4c-0.6-0.6-3.5-3.5-3.5-3.5
			c-0.3-2.5-3.9-2.5-5.3-0.1l-0.5-0.1c0.1-0.5,0.4-1,0.6-1.3c-3,0.7-4.7,3.4-5,6c-1.3,11.1,15.6,8.6,20.4,13
			C46.8,39.2,47,39.5,47.2,39.3z M33.7,21.5c0.9-0.3,2.1,0.6,2.8,1.9c0.7,1.3,0.5,2.6-0.4,2.9c-0.9,0.3-2.1-0.5-2.7-1.9
			c-0.1-0.2-0.2-0.4-0.2-0.5l0.2,0c0.3,0.3,0.6,0.3,0.8,0.2c0.3-0.2,0.3-0.7,0-1.2c-0.2-0.4-0.6-0.8-1-0.7l-0.1-0.1
			C33.3,21.8,33.5,21.6,33.7,21.5z"/>
	</g>
</g>
</svg>
