<?xml version="1.0" encoding="utf-8"?>
<!-- Generator: Adobe Illustrator 23.0.3, SVG Export Plug-In . SVG Version: 6.00 Build 0)  -->
<svg version="1.1" id="Layer_1" xmlns="http://www.w3.org/2000/svg" xmlns:xlink="http://www.w3.org/1999/xlink" x="0px" y="0px"
	 viewBox="0 0 420.5 80.1" style="enable-background:new 0 0 420.5 80.1;" xml:space="preserve">
<g>
	<g>
		<g>
			<g>
				<path d="M397.3,51.5l-11.4-25c-1.3-2.7-3.1-3.9-5.7-3.9h-0.4c-2.7,0-4.5,1.2-5.8,3.9l-11.4,25c-1.1,2.5-0.3,4.7,2,5.6
					c2.1,0.8,4,0.3,5.2-2.1l2.6-5.5c2.3,0.8,5.2,1.2,7.8,1.2c2.8,0,5.5-0.4,7.5-1.2l2.5,5.5c1.1,2.4,3.3,2.8,5.2,2.1
					C397.5,56.2,398.4,53.9,397.3,51.5z M380,43.3c-1.7,0-3.6-0.2-5-0.7l4.9-10.9l4.9,10.9C383.3,43,381.7,43.3,380,43.3z"/>
				<path d="M356.1,49.3h-2.2V26.4c0-2.6-2-4.1-4.3-4.1c-2.3,0-4.1,1.5-4.1,4.1v22.9h-14.6V26.4c0-2.6-1.9-4.1-4.3-4.1
					s-4.3,1.5-4.3,4.1v26.9c0,2.3,1.5,4.1,4.1,4.1h25.4v3.7c0,2.6,1.9,4.1,4.1,4.1c2.4,0,4.1-1.5,4.1-4.1v-7.7
					C360.2,50.7,358.6,49.3,356.1,49.3"/>
				<path d="M313.8,49.3h-2.2V26.4c0-2.6-2-4.1-4.3-4.1c-2.3,0-4.1,1.5-4.1,4.1v22.9h-14.6V26.4c0-2.6-1.9-4.1-4.3-4.1
					s-4.3,1.5-4.3,4.1v26.9c0,2.3,1.5,4.1,4.1,4.1h25.4v3.7c0,2.6,1.9,4.1,4.1,4.1c2.4,0,4.1-1.5,4.1-4.1v-7.7
					C317.9,50.7,316.3,49.3,313.8,49.3"/>
				<path d="M266.8,22.5h-0.3c-2.5,0-4.1,1.2-5.9,3.7l-13.7,19.5V26.4c0-2.6-1.7-4.1-4-4.1c-2.4,0-4.1,1.5-4.1,4.1v26.3
					c0,2.8,1.9,4.7,4.7,4.7h0.4c2.6,0,4.4-1.3,6-3.7l13.7-19.5v19.5c0,2.6,1.7,4.1,4,4.1c2.3,0,4-1.5,4-4.1V27.2
					C271.6,24.4,269.9,22.5,266.8,22.5"/>
				<path d="M225.8,22.5h-23.5c-2.7,0-4.1,1.9-4.1,4.1v26.9c0,2.6,2,4.1,4.3,4.1c2.3,0,4.1-1.5,4.1-4.1V30.7h15v22.9
					c0,2.6,1.9,4.1,4.3,4.1c2.3,0,4.3-1.5,4.3-4.3V26.6C230.1,24.4,228.5,22.5,225.8,22.5"/>
			</g>
			<g>
				<path d="M164.9,22.3c-10.1,0-17.9,7.6-17.9,17.8c0,10.2,7.7,17.8,17.9,17.8c10,0,17.9-7.7,17.9-17.9
					C182.6,29.7,174.9,22.3,164.9,22.3z M164.9,49.8c-5.6,0-9.5-4.1-9.5-9.8c0-5.6,4-9.7,9.5-9.7c5.6,0,9.5,4.1,9.5,9.7
					C174.4,45.7,170.5,49.8,164.9,49.8z"/>
				<path d="M141.1,49.3h-2.2V26.7c0-2.3-1.5-4.1-4.1-4.1h-19.3c-2.3,0-3.8,1.5-3.8,4.1v5.5c0,3.9-0.1,7-0.8,10.2
					c-0.7,3.2-1.5,5.2-2.7,6.9h-1c-2.7,0-4,1.7-4,4.1v7.7c0,2.6,1.9,4.1,4.1,4.1c2.4,0,4.1-1.5,4.1-4.1v-3.7h25.4v3.7
					c0,2.6,1.9,4.1,4.1,4.1c2.4,0,4.1-1.5,4.1-4.1v-7.7C145.2,51,143.9,49.3,141.1,49.3z M130.5,49.3h-13.7c0.9-1.9,1.5-3.5,2.1-5.9
					c0.5-2.6,0.8-5.2,0.9-8.6l0.1-4h10.7V49.3z"/>
				<path d="M84.5,22.3c-10.1,0-17.9,7.6-17.9,17.8c0,10.2,7.7,17.8,17.9,17.8c10,0,17.9-7.7,17.9-17.9
					C102.4,29.7,94.7,22.3,84.5,22.3z M84.5,49.8C79,49.8,75,45.7,75,40c0-5.6,4-9.7,9.5-9.7c5.6,0,9.5,4.1,9.5,9.7
					C94,45.7,90.3,49.8,84.5,49.8z"/>
				<path d="M60.5,49.3h-2.2V26.7c0-2.3-1.5-4.1-4.1-4.1H34.9c-2.3,0-3.8,1.5-3.8,4.1v5.5c0,3.9,0,7-0.8,10.2
					c-0.7,3.2-1.5,5.2-2.7,6.9h-0.9c-2.7,0-4,1.7-4,4.1v7.7c0,2.6,1.9,4.1,4.1,4.1c2.4,0,4.1-1.5,4.1-4.1v-3.7h25.4v3.7
					c0,2.6,1.9,4.1,4.1,4.1c2.4,0,4.1-1.5,4.1-4.1v-7.7C64.7,51,63.4,49.3,60.5,49.3z M50,49.3H36.2c0.9-1.9,1.5-3.5,2.1-5.9
					c0.5-2.6,0.8-5.2,0.9-8.6l0.1-4H50L50,49.3z"/>
			</g>
		</g>
	</g>
</g>
</svg>
