<?xml version="1.0" encoding="utf-8"?>
<!-- Generator: Adobe Illustrator 23.0.3, SVG Export Plug-In . SVG Version: 6.00 Build 0)  -->
<svg version="1.1" id="Layer_1" xmlns="http://www.w3.org/2000/svg" xmlns:xlink="http://www.w3.org/1999/xlink" x="0px" y="0px"
	 viewBox="0 0 128 127.7" style="enable-background:new 0 0 128 127.7;" xml:space="preserve">
<style type="text/css">
	.st0{clip-path:url(#SVGID_2_);fill:#FF6900;}
	.st1{clip-path:url(#SVGID_2_);}
	.st2{clip-path:url(#SVGID_2_);fill:#FFFFFF;}
	.st3{clip-path:url(#SVGID_2_);fill:#E54012;}
</style>
<g>
	<defs>
		<circle id="SVGID_1_" cx="64" cy="64" r="64"/>
	</defs>
	<clipPath id="SVGID_2_">
		<use xlink:href="#SVGID_1_"  style="overflow:visible;"/>
	</clipPath>
	<path class="st0" d="M128,64c0,35.3-28.7,64-64,64C28.7,128,0,99.3,0,64C0,28.7,28.7,0,64,0C99.3,0,128,28.7,128,64"/>
	<path class="st1" d="M101.6,56.3c4.5,0.8,4.7,3,5.6,4.5c0.9,1.5,2.4,2.1,4.2,2.1c3.3,0,5.4-1.7,5.4-7.9c0-13.6-8.6-20.2-17.6-20.2
		c-7.4,0-10.2,1.6-17.3,1.6c-5,0-9.1-10.1-14.8-11.5c-2.5-5.6-8.1-6.2-11.6-3.4c-3.1-1.9-8-0.9-8.2,2.6c-3.6-1.1-8.3,0.8-6.3,5.6
		c-8.8,0.3-10.5,8-4.5,8.9c-7.7,4.4-4.2,11.9,2.3,10.3c0.5,5.3,2.6,14,2.6,19.9c0,8.3-3.8,10.2-8.9,10.2c-5.1,0-17.6-2.7-29.4-8.8
		L-2,67.5L-2.9,74l6.1,3c10.1,4.5,22.8,7.6,30.1,7.6c8.1,0,12.6-4.8,12.6-13.8c0-11.1-3.6-21.2-2.4-27.6l-0.3-0.4
		c-4,4.2-6.7,3.1-7,1.7c-0.6-2.7,4.2-6.1,6.9-7.2c0.1-0.2,0.1-0.4,0.2-0.6c-2.5,0.4-5.5,0.1-5.6-1.7C37.6,33,42,31,47.6,31.5
		c0.1-0.1,0.2-0.2,0.3-0.3c-0.4-0.1-0.7-0.3-1.2-0.6c-1.5-0.7-1.8-2-1.3-2.9c0.5-1,2.1-1.4,3.4-1.4c2,0,3.8,0.5,5,1
		c0.1-0.1,0.3-0.1,0.4-0.2c-0.5-0.4-0.9-0.8-1.1-1.2c-0.3-0.6-0.4-1.4,0.2-2c0.8-0.6,2.8-0.8,4.6,0.8c0.4,0.3,0.7,0.7,1,1
		c0.2,0,0.4-0.1,0.6-0.1c-0.3-0.5-0.5-0.9-0.6-1.4c-0.1-0.6,0.1-1.3,0.8-1.5c0.8-0.3,1.8,0.1,2.3,0.9c0.6,0.8,0.9,1.8,1.1,2.5
		c-4,0.5-14.6,2.9-14.6,15.7c0,12.5,10.4,25.6,10.4,44.9c0,7-1.6,14.1-7.9,22.3c-4.9,6.3-12.8,12.4-24.9,17.5c-12.1,5-15.8,5-15.8,5
		h20.8c1.9-1,4-2.2,6.3-3.5c10.1-5.6,15.1-10.7,18.6-15.5c6.8,3,13.3,4.3,19.1,4.3c11,0,20.3-5.1,25.2-14.1c5-3,8.4-9.2,8.6-13.6
		c3.1-3.9,3.7-8.9,2.7-12.3c-0.2-0.8-0.9-0.8-2-0.1c-9.9,5.9-19.5,8.8-28.6,8.8c-5.5,0-11.2-0.9-17.3-2.6
		c-0.4-6.5-1.8-11.9-2.3-15.2c-0.7-4.4,0.3-7.6,5.1-7.6c3.5,0,10,0.9,15.2,3.2c5.1,2.3,8.2,6.9,10.3,6.9c0.9,0,1.8-0.5,1.8-2.4
		c0-3.7-1.3-9.7-3-11.8C95.7,56,99.5,56.1,101.6,56.3 M63.8,89.6c5.5,1.5,13.2,2.4,19.6,1.9c11.2-0.8,19.6-4.9,24.3-8
		c-2.8,7.2-13.5,11.6-23.8,12.9c-0.1,0.5-0.1,1-0.2,1.5c7.7-0.4,15.1-2.9,18.4-5.2c-1.9,7.1-11.4,9.9-20,10.3
		c-0.2,0.6-0.5,1.1-0.8,1.6c5,0.1,9.8-0.8,12.7-1.7c-2.6,4.9-11.4,8.8-20.5,8.8c-4.4,0-10-0.9-14.8-3.2
		C62.2,102.1,63.5,95.6,63.8,89.6 M87.1,50.7c-0.8,0-1-0.5-0.9-0.8c1.2-3.6,2.3-6.4,4.3-8.5c2.1-2.2,4.4-2.9,9.5-2.9
		c7,0,12.9,7.1,12.9,17c0,1.5-2,1.5-2.6,0.1c-2.4-4.2-5.6-4.8-10.7-5.2C95.7,50.2,91.2,50.5,87.1,50.7"/>
	<path class="st2" d="M64.2,31.7c1.5-0.5,3.6,1,4.7,3.3c1.1,2.3,0.9,4.6-0.6,5c-1.5,0.5-3.6-0.9-4.7-3.2c-0.2-0.3-0.3-0.6-0.4-0.9
		l0.3-0.1c0.5,0.5,1,0.6,1.4,0.3c0.5-0.3,0.5-1.3,0-2c-0.3-0.6-1-1.3-1.6-1.3l-0.1-0.1C63.4,32.2,63.7,31.8,64.2,31.7 M74.6,54.7
		c-6.6-1.5-13.9-3.4-17.8-9.1c-0.1-0.1-0.2-0.2-0.3-0.1c-0.1,0-0.2,0.1-0.2,0.3c0,0.3,0,0.7,0.1,1L55.9,47c-1-1.4-1.2-3.2-0.2-4.4
		c1.5-1.8,4.4-1.6,6.2-0.5l-0.2,0.5c-0.9-0.2-1.8-0.2-2.6,0.3c-0.6,0.4-0.7,0.9-0.3,1.6c3.2,6,12.6,7.3,23.7,6.4
		c1.1-0.1,1.4-0.6,1.6-1.2c1-3.8,2.7-7.3,5.3-9.9c-2,0.3-3.9,0.3-5.6,0.4c-5.7,0.4-9-0.4-10-1.2l0.2-0.5c0.6,0.2,1.2,0.3,1.4,0.1
		c0.2-0.2,0-0.4-0.2-0.6c-1.1-1-6-6-6-6c-0.5-4.2-6.7-4.4-9.2-0.2L59,31.5c0.2-0.9,0.6-1.7,1-2.2c-5.2,1.2-8.1,5.8-8.6,10.3
		C49.1,58.7,78.2,54.3,86.6,62c0.2,0.1,0.6,0.7,0.8,0.3C87.7,61.3,84,56.8,74.6,54.7"/>
	<path class="st2" d="M107.7,83.5c-4.7,3-13.1,7.2-24.3,8c-6.4,0.4-14-0.4-19.6-1.9c-0.1,1.8-0.3,3.8-0.6,5.7
		c3.1,0.8,8.7,1.9,16.7,2.1c-0.4,2.2-2.5,9.5-8.2,14.2C82,112,91.3,108,94,102.8c-2.9,0.9-7.7,1.8-12.7,1.7c0.3-0.5,0.5-1,0.8-1.6
		c8.6-0.4,18.1-3.2,20-10.3c-3.3,2.3-10.7,4.8-18.4,5.2c0.1-0.5,0.2-1,0.2-1.5C94.2,95.1,104.9,90.7,107.7,83.5"/>
	<path class="st1" d="M3.2,103.2c7.4-2.5,23.7-4.8,23.7-4.8l0.5-2.3c-10.8-0.2-24.3,0.7-24.3,0.7"/>
	<path class="st1" d="M61.8,21.2c0,0-1.4-4.5-12.3-5.9c-5.6-0.6-9.7-0.3-14.7,1.5c-2.2,0.8-6.2,3-8.5,7.3c-1.6,3-3.4,6.3-4.7,10.4
		c-0.9,2.8-1.4,4.6,1.2,12.6c6.2,19.1,7.8,20.6,7.8,20.6l7.6-1c0,0,4.7-2.7,3.1-17.2"/>
	<path class="st3" d="M53.8,20.5c-0.6-1.4-13.2-4.3-20.6,1.5c-3,2.3-9.5,15.1-8.3,19.1c1.2,4,10.4,14.6,10.9,19.5
		c0.3,2.6,3.3,2.6,3-5.5c-0.4-8.1,2.3-14.7,2.3-14.7"/>
	<path class="st1" d="M48.6,40.9c0,0,2.3,7.7,2.1,9.3c-0.1,0.8-0.4,4.2-1.9,7.3c-1.3,2.8-3.6,5.3-7.6,5.5c-2.5,0.1-5.5-11-3.2-15.4
		c0,0,0.7-2.7,1.9-10.9c1.2-8.2,4.3-12.7,9-15.5c4.1-2.5,10.3-4.7,15.7-2.3c2.9,1.3,3.9,5.2,3.6,6.8l-3.6,1.5L55.9,30l-3.2,3.3
		L48.6,40.9z"/>
	<path class="st2" d="M40.7,55.5c0,0,3.2,1,5.2-2.6c0.4-0.7,0.7-1.7,1-2.6c0.6-2.2,1-4.4,1.1-6.6c0.3-5.9,2-11.9,6.9-15.6
		c5.1-3.9,10.6-1.5,10.6-4.5c0-2.6-2.9-3.7-6.9-3.3c-5.9,0.6-11.3,4.7-13.9,9.9c-4.3,8.3-1.8,14.7-5,19.6
		C39.7,49.7,37.9,51.6,40.7,55.5"/>
	<path class="st3" d="M25,41.4c5.7,17.1,8.7,25.4,8.4,26.6c-0.3,1.4,2.4,1.6,5.8-2.5C41.8,62.2,41.9,60,42,55c0.2-8.1-2.3-19-2.3-19
		"/>
	<path class="st1" d="M39.8,68c4.6-7.5,3.4-21.5,2.2-28.8c0-0.1-1.7-3.7-2.1-5.4c0-0.1-0.1-0.2-0.1-0.2c-0.1-0.1-0.1-0.1-0.2-0.1
		c-0.1,0-0.2,0-0.3,0c-0.1,0-0.2,0.1-0.2,0.1l-0.7,0.7c-0.2,0.2-0.2,0.6-0.2,0.9c3.6,19,0.5,30.7-0.9,32.2"/>
	<path class="st1" d="M35.6,60.3c-4.9,0-9.1,3.3-9.1,8.2s3.3,8.6,8.5,8.9c5.7,0.3,9.8-4.3,9.3-8.9C43.9,63.6,40.5,60.3,35.6,60.3"/>
	<path class="st2" d="M35.6,62.4c-3.4,0-6.3,2.3-6.3,5.7c0,3.4,2.9,6.2,6.3,6.2c3.4,0,6.1-2.8,6.1-6.2C41.6,64.7,39,62.4,35.6,62.4"
		/>
	<path class="st1" d="M30.6,19.7C30.6,19.7,30.6,19.7,30.6,19.7c0,0-0.1,0.1-0.2,0.1"/>
	<path class="st1" d="M52.3,57.3c0,0-1.3-3.5-3.1-0.5l-1.4-0.7l2.3-6.6l4.2,7.7L52.3,57.3z"/>
	<path class="st1" d="M41.4,30.5c0,0-1.3,2.2-4,1.4c-0.1-0.1-0.2-0.1-0.3-0.2c-0.1,0-0.2-0.1-0.3,0c-0.1,0-0.2,0-0.3,0.1
		c-0.1,0-0.2,0.1-0.3,0.2l-0.6,0.7c-0.1,0.1-0.2,0.3-0.2,0.5c0,0.2,0.1,0.4,0.2,0.5c1.5,1.5,2.5,3.5,3.3,5.6
		C40.8,38.8,41.4,30.5,41.4,30.5"/>
</g>
</svg>
