<?xml version="1.0" encoding="utf-8"?>
<!-- Generator: Adobe Illustrator 23.0.3, SVG Export Plug-In . SVG Version: 6.00 Build 0)  -->
<svg version="1.1" id="Layer_1" xmlns="http://www.w3.org/2000/svg" xmlns:xlink="http://www.w3.org/1999/xlink" x="0px" y="0px"
	 viewBox="0 0 252.7 115.1" style="enable-background:new 0 0 252.7 115.1;" xml:space="preserve">
<g>
	<g>
		<g>
			<g>
				<path d="M49,36.4c-0.3,0.1-0.5,0.3-0.6,0.6l0.1,0.1c0.3,0,0.8,0.4,1,0.7c0.3,0.5,0.3,1,0,1.2c-0.2,0.1-0.5,0.1-0.8-0.2l-0.2,0
					c0.1,0.2,0.1,0.4,0.2,0.5c0.7,1.3,1.9,2.2,2.7,1.9c0.9-0.3,1-1.6,0.4-2.9C51.1,37,49.9,36.1,49,36.4z"/>
				<path d="M53.8,19.3H30.7c-6.4,0-11.2,4.9-11.2,11.5v53.6c0,6.4,4.7,11.1,11.2,11.1h23.1c22.7,0,39.3-16.1,39.3-38.3
					C93.1,35.3,76.5,19.3,53.8,19.3z M26.9,91.5c-2.6-1.3-4.4-3.8-4.4-7.5V76c2.4-0.5,4.9-0.9,4.9-0.9l0.3-1.3c-1.1-0.1-3.3,0-5.2,0
					v-8c2.4,0.6,5.9,1.3,8.6,1.3c4.7,0,7.3-2.8,7.3-8c0-6.4-2.1-12.3-1.4-16l-0.2-0.2c-2.3,2.4-3.9,1.8-4,1c-0.3-1.6,2.4-3.5,4-4.2
					c0-0.1,0.1-0.2,0.1-0.3c-1.5,0.2-3.2,0-3.3-1c-0.1-1.2,2.4-2.4,5.7-2.1c0.1-0.1,0.1-0.1,0.2-0.2c-0.2-0.1-0.4-0.2-0.7-0.3
					c-0.8-0.4-1.1-1.2-0.8-1.7c0.3-0.6,1.2-0.8,2-0.8c1.2,0,2.2,0.3,2.9,0.6c0.1,0,0.2-0.1,0.2-0.1c-0.3-0.2-0.5-0.4-0.6-0.7
					c-0.2-0.3-0.3-0.8,0.1-1.1c0.5-0.4,1.6-0.5,2.7,0.5c0.2,0.2,0.4,0.4,0.6,0.6c0.1,0,0.2,0,0.4-0.1c-0.2-0.3-0.3-0.5-0.4-0.8
					c-0.1-0.4,0.1-0.7,0.5-0.9c0.5-0.1,1,0.1,1.3,0.5c0.3,0.5,0.5,1.1,0.6,1.5C46.1,33.6,40,35,40,42.4c0,7.2,6,14.8,6,26
					c0,4.1-0.9,8.2-4.6,12.9C38.5,85,33.9,88.6,26.9,91.5z M60.3,41.3c1-0.1,2-0.1,3.2-0.3c-1.5,1.5-2.5,3.5-3.1,5.7
					c-0.1,0.3-0.2,0.6-0.9,0.7c-6.4,0.5-11.9-0.3-13.7-3.7c-0.2-0.4-0.2-0.7,0.2-0.9c0.4-0.2,0.9-0.2,1.5-0.2l0.1-0.3
					c-1-0.6-2.7-0.8-3.6,0.3c-0.6,0.7-0.5,1.7,0.1,2.6l0.3-0.1c0-0.2-0.1-0.4-0.1-0.6c0-0.1,0.1-0.1,0.1-0.2c0.1,0,0.1,0,0.2,0.1
					c2.2,3.3,6.5,4.4,10.3,5.3c5.5,1.2,7.6,3.8,7.4,4.4c-0.2,0.2-0.4-0.1-0.5-0.2c-4.8-4.5-21.7-1.9-20.4-13c0.3-2.6,2-5.3,5-6
					c-0.2,0.3-0.4,0.7-0.6,1.3l0.5,0.1c1.4-2.4,5-2.3,5.3,0.1c0,0,2.8,2.9,3.5,3.5c0.2,0.1,0.2,0.2,0.1,0.4c-0.1,0.1-0.4,0.1-0.8,0
					l-0.1,0.3C55.1,41.1,57,41.5,60.3,41.3z M64.2,42c1.2-1.3,2.5-1.7,5.5-1.7c4.1,0,7.5,4.1,7.5,9.9c0,0.9-1.1,0.8-1.5,0.1
					c-1.4-2.4-3.3-2.8-6.2-3c-2.2-0.1-4.8,0.1-7.2,0.2c-0.4,0-0.6-0.3-0.5-0.5C62.5,44.8,63.1,43.2,64.2,42z M71,71.8
					c-1.1,4.1-6.6,5.7-11.6,6c-0.1,0.3-0.3,0.6-0.4,0.9c2.9,0.1,5.7-0.5,7.3-1c-1.5,2.8-6.6,5.1-11.9,5.1c-2.6,0-5.8-0.5-8.6-1.8
					c2-3.7,2.8-7.5,3-10.9c3.2,0.9,7.7,1.4,11.4,1.1c6.5-0.5,11.4-2.9,14.1-4.6c-1.6,4.2-7.8,6.7-13.8,7.5c0,0.3-0.1,0.6-0.1,0.9
					C64.8,74.6,69.1,73.1,71,71.8z M53.8,92.4H33.5c5.8-3.2,8.7-6.2,10.7-9c3.9,1.7,7.7,2.5,11.1,2.5c6.4,0,11.8-2.9,14.6-8.2
					c2.9-1.7,4.8-5.3,5-7.9c1.8-2.3,2.1-5.2,1.6-7.1c-0.1-0.5-0.5-0.5-1.2-0.1c-5.7,3.4-11.3,5.1-16.6,5.1c-3.2,0-6.5-0.5-10-1.5
					c-0.3-3.8-1-6.9-1.3-8.8C47,54.9,47.6,53,50.4,53c2,0,5.8,0.5,8.8,1.9c3,1.4,4.7,4,6,4c0.5,0,1-0.3,1-1.4c0-2.2-0.8-5.6-1.7-6.9
					c2.8-0.2,5-0.1,6.2,0c2.6,0.5,2.7,1.8,3.2,2.6c0.5,0.8,1.4,1.2,2.4,1.2c1.9,0,3.1-1,3.1-4.6c0-7.9-5-11.7-10.2-11.7
					c-4.3,0-5.9,0.9-10,0.9c-2.9,0-5.3-5.9-8.6-6.6c-1.4-3.2-4.7-3.6-6.7-2c-1.8-1.1-4.7-0.5-4.8,1.5c-2.1-0.6-4.8,0.5-3.6,3.2
					c-5.1,0.1-6.1,4.7-2.6,5.2c-4.5,2.5-2.4,6.9,1.3,6c0.3,3.1,1.5,8.1,1.5,11.6c0,4.8-2.2,5.9-5.2,5.9c-2.3,0-5.8-0.9-8.2-1.5V31.1
					c0-5.3,3.8-8.7,8.4-8.7h22.9c20.4,0,36,14,36,34.8C89.9,78.2,74.2,92.4,53.8,92.4z"/>
			</g>
		</g>
	</g>
	<g>
		<g>
			<g>
				<g>
					<g>
						<g>
							<path d="M123.5,63.9h-14.6c-1.7,0-2.6,1.2-2.6,2.6v16.7c0,1.6,1.2,2.6,2.7,2.6c1.4,0,2.6-0.9,2.6-2.6V69h9.3v14.2
								c0,1.6,1.2,2.6,2.6,2.6c1.4,0,2.6-1,2.6-2.6V66.5C126.2,65.1,125.2,63.9,123.5,63.9z"/>
							<path d="M149,63.9h-0.2c-1.5,0-2.6,0.8-3.6,2.3l-8.5,12.1V66.5c0-1.6-1-2.6-2.5-2.6c-1.5,0-2.5,0.9-2.5,2.6v16.1
								c0,1.7,1.1,2.9,2.9,2.9h0.2c1.6,0,2.7-0.8,3.7-2.3l8.5-12.1V83c0,1.6,1,2.6,2.5,2.6c1.4,0,2.5-0.9,2.5-2.6V66.9
								C152,65,150.9,63.9,149,63.9z"/>
							<path d="M178.1,80.5h-1.3V66.3c0-1.6-1.2-2.6-2.7-2.6c-1.4,0-2.6,0.9-2.6,2.6v14.2h-9.1V66.3c0-1.6-1.1-2.6-2.6-2.6
								c-1.5,0-2.6,0.9-2.6,2.6V83c0,1.4,0.9,2.5,2.6,2.5h15.7v2.3c0,1.6,1.1,2.6,2.5,2.6c1.5,0,2.6-0.9,2.6-2.6v-4.8
								C180.7,81.4,179.7,80.5,178.1,80.5z"/>
							<path d="M204.4,80.5H203V66.3c0-1.6-1.2-2.6-2.7-2.6c-1.4,0-2.6,0.9-2.6,2.6v14.2h-9.1V66.3c0-1.6-1.1-2.6-2.6-2.6
								c-1.5,0-2.6,0.9-2.6,2.6V83c0,1.4,0.9,2.5,2.6,2.5h15.7v2.3c0,1.6,1.1,2.6,2.5,2.6c1.5,0,2.6-0.9,2.6-2.6v-4.8
								C206.9,81.4,205.9,80.5,204.4,80.5z"/>
							<path d="M229.9,81.9l-7.1-15.5c-0.8-1.7-1.9-2.4-3.5-2.4H219c-1.7,0-2.8,0.7-3.6,2.4l-7.1,15.5c-0.7,1.5-0.2,2.9,1.2,3.4
								c1.3,0.5,2.5,0.2,3.2-1.3l1.6-3.4c1.4,0.5,3.2,0.7,4.9,0.7c1.8,0,3.4-0.2,4.7-0.7l1.5,3.4c0.7,1.5,2,1.7,3.2,1.3
								C230,84.8,230.6,83.3,229.9,81.9z M219.1,76.7c-1.1,0-2.2-0.1-3.1-0.4l3-6.8l3,6.8C221.3,76.6,220.2,76.7,219.1,76.7z"/>
						</g>
						<g>
							<path d="M129.8,45.8h-1.3v-14c0-1.4-0.9-2.5-2.6-2.5h-12c-1.4,0-2.3,0.9-2.3,2.6v3.4c0,2.4,0,4.3-0.5,6.4
								c-0.4,2-0.9,3.2-1.7,4.2h-0.6c-1.7,0-2.5,1-2.5,2.6v4.8c0,1.6,1.1,2.6,2.6,2.6c1.5,0,2.6-0.9,2.6-2.6v-2.3h15.8v2.3
								c0,1.6,1.1,2.6,2.5,2.6c1.5,0,2.6-0.9,2.6-2.6v-4.8C132.4,46.9,131.6,45.8,129.8,45.8z M123.3,45.8h-8.5
								c0.5-1.1,0.9-2.1,1.3-3.7c0.3-1.6,0.5-3.2,0.5-5.3l0-2.5h6.6V45.8z"/>
							<path d="M144.7,29.1c-6.3,0-11.1,4.7-11.1,11c0,6.4,4.8,11,11.1,11c6.3,0,11.1-4.8,11.1-11.1
								C155.8,33.7,150.9,29.1,144.7,29.1z M144.7,46.2c-3.4,0-5.9-2.6-5.9-6.1c0-3.5,2.5-6,5.9-6c3.5,0,5.9,2.6,5.9,6
								C150.6,43.6,148.2,46.2,144.7,46.2z"/>
							<path d="M194.5,29.1c-6.3,0-11.1,4.7-11.1,11c0,6.4,4.8,11,11.1,11c6.3,0,11.1-4.8,11.1-11.1
								C205.5,33.7,200.7,29.1,194.5,29.1z M194.5,46.2c-3.4,0-5.9-2.6-5.9-6.1c0-3.5,2.5-6,5.9-6c3.5,0,5.9,2.6,5.9,6
								C200.4,43.6,198,46.2,194.5,46.2z"/>
							<path d="M179.8,45.8h-1.3v-14c0-1.4-0.9-2.5-2.6-2.5h-12c-1.4,0-2.3,0.9-2.3,2.6v3.4c0,2.4,0,4.3-0.5,6.4
								c-0.4,2-0.9,3.2-1.7,4.2h-0.6c-1.7,0-2.5,1-2.5,2.6v4.8c0,1.6,1.1,2.6,2.6,2.6c1.5,0,2.6-0.9,2.6-2.6v-2.3h15.8v2.3
								c0,1.6,1.1,2.6,2.6,2.6c1.5,0,2.6-0.9,2.6-2.6v-4.8C182.3,46.9,181.5,45.8,179.8,45.8z M173.2,45.8h-8.5
								c0.5-1.1,0.9-2.1,1.3-3.7c0.3-1.6,0.5-3.2,0.5-5.3l0-2.5h6.6V45.8z"/>
						</g>
					</g>
				</g>
			</g>
		</g>
	</g>
</g>
</svg>
