<?xml version="1.0" encoding="utf-8"?>
<!-- Generator: Adobe Illustrator 23.0.3, SVG Export Plug-In . SVG Version: 6.00 Build 0)  -->
<svg version="1.1" id="Layer_1" xmlns="http://www.w3.org/2000/svg" xmlns:xlink="http://www.w3.org/1999/xlink" x="0px" y="0px"
	 viewBox="0 0 128 128" style="enable-background:new 0 0 128 128;" xml:space="preserve">
<style type="text/css">
	.st0{fill:#FF6900;}
	.st1{clip-path:url(#SVGID_2_);}
	.st2{clip-path:url(#SVGID_2_);fill:#FFFFFF;}
	.st3{clip-path:url(#SVGID_2_);fill:#E54012;}
</style>
<rect class="st0" width="128" height="128"/>
<g>
	<defs>
		<rect id="SVGID_1_" width="128" height="128"/>
	</defs>
	<clipPath id="SVGID_2_">
		<use xlink:href="#SVGID_1_"  style="overflow:visible;"/>
	</clipPath>
	<path class="st1" d="M96.3,54.3c4.4,0.8,4.6,3,5.4,4.4s2.3,2.1,4.1,2.1c3.3,0,5.3-1.7,5.3-7.7c0-13.3-8.4-19.7-17.2-19.7
		c-7.2,0-10,1.6-16.9,1.6c-4.9,0-8.9-9.9-14.4-11.2c-2.4-5.4-7.9-6-11.3-3.3c-3.1-1.9-7.9-0.9-8.1,2.6c-3.5-1.1-8.1,0.8-6.1,5.4
		c-8.6,0.2-10.2,7.9-4.4,8.7c-7.5,4.3-4.1,11.6,2.2,10.1c0.4,5.2,2.6,13.7,2.6,19.5c0,8.1-3.7,10-8.7,10c-5,0-17.2-2.7-28.7-8.6
		l-5.1-2.8l-0.9,6.4l5.9,2.9C10,78.9,22.4,82,29.6,82c7.9,0,12.3-4.6,12.3-13.5c0-10.9-3.5-20.8-2.3-26.9l-0.3-0.4
		c-4,4.1-6.5,3-6.8,1.7c-0.6-2.7,4.1-5.9,6.7-7.1c0-0.2,0.1-0.4,0.2-0.5c-2.5,0.4-5.4,0.1-5.5-1.7c-0.1-2.1,4.1-4,9.6-3.5
		c0.1-0.1,0.2-0.2,0.3-0.3c-0.3-0.1-0.7-0.3-1.2-0.6c-1.4-0.7-1.8-2-1.3-2.8c0.5-1,2.1-1.4,3.3-1.3c2,0,3.7,0.5,4.9,1
		c0.1-0.1,0.3-0.1,0.4-0.2c-0.5-0.4-0.9-0.7-1.1-1.1c-0.3-0.6-0.4-1.4,0.2-1.9c0.8-0.6,2.7-0.8,4.5,0.8c0.4,0.3,0.7,0.7,1,1
		c0.2,0,0.4-0.1,0.6-0.1c-0.3-0.4-0.5-0.9-0.6-1.4c-0.1-0.6,0.1-1.2,0.8-1.5c0.8-0.2,1.7,0.1,2.2,0.9c0.5,0.8,0.9,1.8,1.1,2.5
		c-3.9,0.5-14.2,2.8-14.2,15.3c0,12.2,10.1,25,10.1,43.9c0,6.9-1.5,13.8-7.8,21.8c-4.8,6.2-12.5,12.2-24.3,17.1s-15.4,4.9-15.4,4.9
		h20.3c1.9-1,3.9-2.1,6.2-3.4c9.9-5.4,14.8-10.5,18.1-15.2c6.6,2.9,13,4.2,18.7,4.2c10.7,0,19.9-4.9,24.7-13.8
		c4.9-2.9,8.2-9,8.4-13.3c3.1-3.8,3.6-8.7,2.7-12c-0.2-0.8-0.9-0.8-2-0.1c-9.7,5.8-19,8.6-28,8.6c-5.4,0-11-0.9-16.9-2.6
		c-0.4-6.3-1.7-11.7-2.2-14.9c-0.7-4.3,0.3-7.4,5-7.4c3.4,0,9.8,0.9,14.8,3.2c5,2.3,8,6.8,10.1,6.8c0.8,0,1.7-0.5,1.7-2.3
		c0-3.6-1.3-9.5-2.9-11.6C90.5,54,94.2,54.1,96.3,54.3 M59.4,86.8c5.4,1.5,12.9,2.3,19.1,1.9c10.9-0.8,19.1-4.8,23.8-7.8
		c-2.8,7-13.2,11.4-23.3,12.6c-0.1,0.5-0.1,1-0.2,1.5c7.6-0.4,14.8-2.9,18-5.1c-1.9,6.9-11.1,9.7-19.5,10.1
		c-0.2,0.5-0.5,1.1-0.7,1.5c4.9,0.1,9.6-0.8,12.4-1.7c-2.5,4.8-11.2,8.6-20,8.6c-4.3,0-9.8-0.8-14.5-3.1
		C57.8,99.1,59.1,92.7,59.4,86.8 M82.1,48.8c-0.8,0-1-0.5-0.9-0.8c1.2-3.6,2.2-6.2,4.2-8.3c2-2.2,4.3-2.8,9.3-2.8
		c6.9,0,12.6,6.9,12.6,16.6c0,1.4-1.9,1.4-2.6,0.1c-2.3-4.1-5.5-4.7-10.5-5.1C90.6,48.3,86.1,48.6,82.1,48.8"/>
	<path class="st2" d="M59.8,30.2c1.4-0.5,3.5,0.9,4.6,3.2c1.1,2.2,0.8,4.5-0.6,4.9c-1.4,0.5-3.5-0.9-4.6-3.2
		c-0.2-0.3-0.3-0.6-0.4-0.9l0.3-0.1c0.5,0.4,1,0.6,1.4,0.3c0.5-0.3,0.5-1.2,0-2c-0.3-0.6-1-1.3-1.6-1.2l-0.1-0.1
		C59,30.7,59.3,30.4,59.8,30.2 M69.9,52.8c-6.5-1.4-13.6-3.3-17.4-8.9c-0.1-0.1-0.2-0.2-0.3-0.1c-0.1,0-0.2,0.1-0.2,0.3
		c0,0.3,0,0.6,0.1,1l-0.5,0.2c-1-1.4-1.2-3.1-0.2-4.3c1.4-1.8,4.3-1.6,6-0.5l-0.2,0.5c-0.9-0.2-1.8-0.2-2.5,0.3
		c-0.6,0.4-0.7,0.9-0.3,1.6c3.1,5.8,12.3,7.1,23.1,6.3c1.1-0.1,1.4-0.6,1.5-1.1c0.9-3.8,2.7-7.1,5.2-9.7c-2,0.3-3.8,0.3-5.4,0.4
		c-5.6,0.4-8.8-0.4-9.8-1.2l0.2-0.5c0.6,0.2,1.2,0.3,1.3,0.1c0.2-0.2,0-0.4-0.2-0.6c-1.1-1-5.8-5.9-5.8-5.9c-0.5-4.1-6.6-4.3-9-0.2
		L54.7,30c0.2-0.9,0.6-1.6,0.9-2.2c-5,1.1-7.9,5.7-8.4,10c-2.2,18.8,26.3,14.4,34.4,22c0.2,0.1,0.5,0.7,0.8,0.3
		C82.7,59.2,79.2,54.8,69.9,52.8"/>
	<path class="st2" d="M102.3,80.9c-4.6,3-12.8,7-23.8,7.8c-6.2,0.4-13.7-0.4-19.1-1.9c-0.1,1.8-0.3,3.7-0.6,5.6
		c3.1,0.8,8.5,1.8,16.3,2c-0.3,2.1-2.5,9.3-8,13.9c10,0.4,19.1-3.5,21.7-8.6c-2.8,0.9-7.5,1.8-12.4,1.7c0.3-0.5,0.5-1,0.7-1.5
		c8.4-0.4,17.7-3.2,19.5-10.1c-3.3,2.2-10.5,4.7-18,5.1c0.1-0.5,0.2-1,0.2-1.5C89.1,92.3,99.5,87.9,102.3,80.9"/>
	<path class="st1" d="M0.1,100.1c7.2-2.4,23.2-4.7,23.2-4.7l0.5-2.3c-10.6-0.2-23.7,0.7-23.7,0.7"/>
	<path class="st1" d="M57.4,19.9c0,0-1.4-4.4-12-5.7c-5.5-0.6-9.5-0.3-14.4,1.5c-2.2,0.8-6.1,2.9-8.3,7.1c-1.6,3-3.3,6.2-4.6,10.1
		c-0.9,2.7-1.4,4.5,1.1,12.3c6.1,18.7,7.7,20.2,7.7,20.2l7.4-1c0,0,4.6-2.6,3-16.8"/>
	<path class="st3" d="M49.6,19.3c-0.6-1.4-12.9-4.2-20.2,1.5c-2.9,2.3-9.3,14.7-8.1,18.7c1.2,3.9,10.2,14.2,10.7,19.1
		c0.3,2.6,3.3,2.5,2.9-5.4c-0.4-7.9,2.3-14.4,2.3-14.4"/>
	<path class="st1" d="M44.5,39.2c0,0,2.2,7.5,2.1,9.1c-0.1,0.8-0.4,4.1-1.8,7.2c-1.3,2.7-3.6,5.2-7.4,5.3c-2.5,0.1-5.4-10.7-3.2-15
		c0,0,0.7-2.7,1.8-10.6c1.1-8,4.2-12.4,8.8-15.2c4.1-2.5,10.1-4.6,15.3-2.3c2.8,1.2,3.8,5.1,3.5,6.6l-3.6,1.5l-8.4,2.8l-3.2,3.3
		L44.5,39.2z"/>
	<path class="st2" d="M36.8,53.5c0,0,3.2,1,5.1-2.5c0.4-0.7,0.7-1.6,0.9-2.6c0.6-2.1,1-4.3,1.1-6.5c0.3-5.8,2-11.6,6.8-15.2
		c5-3.8,10.4-1.5,10.4-4.4c0-2.5-2.9-3.7-6.8-3.3c-5.8,0.6-11,4.6-13.6,9.7c-4.2,8.1-1.8,14.4-4.8,19.1C35.8,47.9,34,49.7,36.8,53.5
		"/>
	<path class="st3" d="M21.4,39.8c5.6,16.7,8.5,24.8,8.2,26c-0.3,1.4,2.4,1.6,5.6-2.5C37.9,60,38,57.9,38.1,53
		c0.2-7.9-2.3-18.6-2.3-18.6"/>
	<path class="st1" d="M35.9,65.8c4.5-7.4,3.3-21.1,2.1-28.1c0-0.1-1.6-3.6-2-5.3c0-0.1-0.1-0.2-0.1-0.2c-0.1-0.1-0.1-0.1-0.2-0.1
		c-0.1,0-0.2,0-0.3,0c-0.1,0-0.2,0.1-0.2,0.1l-0.7,0.7c-0.2,0.2-0.2,0.5-0.2,0.9c3.5,18.5,0.5,30-0.9,31.5"/>
	<path class="st1" d="M31.8,58.2c-4.8,0-8.9,3.2-8.9,8s3.2,8.4,8.3,8.7c5.5,0.3,9.6-4.2,9.1-8.7C39.9,61.5,36.6,58.2,31.8,58.2"/>
	<path class="st2" d="M31.8,60.2c-3.3,0-6.2,2.2-6.2,5.6c0,3.3,2.8,6.1,6.1,6.1s6-2.7,6-6.1C37.7,62.5,35.1,60.2,31.8,60.2"/>
	<path class="st1" d="M26.9,18.5C26.9,18.5,26.9,18.5,26.9,18.5c0,0-0.1,0.1-0.2,0.1"/>
	<path class="st1" d="M48.1,55.3c0,0-1.3-3.4-3-0.5l-1.4-0.7l2.2-6.4l4.1,7.6L48.1,55.3z"/>
	<path class="st1" d="M37.5,29.1c0,0-1.2,2.1-3.9,1.3c-0.1-0.1-0.2-0.1-0.3-0.2c-0.1,0-0.2-0.1-0.3,0c-0.1,0-0.2,0-0.3,0.1
		c-0.1,0-0.2,0.1-0.3,0.2l-0.6,0.7c-0.1,0.1-0.2,0.3-0.2,0.5c0,0.2,0.1,0.4,0.2,0.5c1.5,1.5,2.5,3.4,3.2,5.5
		C36.9,37.2,37.5,29.1,37.5,29.1"/>
</g>
</svg>
